<mxfile host="Electron" agent="Mozilla/5.0 (Macintosh; Intel Mac OS X 10_15_7) AppleWebKit/537.36 (KHTML, like Gecko) draw.io/26.0.16 Chrome/132.0.6834.196 Electron/34.2.0 Safari/537.36" version="26.0.16" pages="4">
  <diagram name="Ãœbersicht" id="udvTZZszBkljBCpfwp9e">
    <mxGraphModel dx="681" dy="445" grid="1" gridSize="10" guides="1" tooltips="1" connect="1" arrows="1" fold="1" page="1" pageScale="1" pageWidth="827" pageHeight="1169" math="0" shadow="0">
      <root>
        <mxCell id="0" />
        <mxCell id="1" parent="0" />
        <mxCell id="Ns4UkMlDHWn5gxUy7XMD-10" value="" style="rounded=1;whiteSpace=wrap;html=1;fillColor=#f5f5f5;fontColor=#333333;strokeColor=#666666;shadow=1;" vertex="1" parent="1">
          <mxGeometry x="40" y="160" width="640" height="200" as="geometry" />
        </mxCell>
        <mxCell id="Ns4UkMlDHWn5gxUy7XMD-2" value="" style="rounded=1;whiteSpace=wrap;html=1;glass=0;shadow=1;fillColor=#dae8fc;strokeColor=#6c8ebf;gradientColor=none;textShadow=0;" vertex="1" parent="1">
          <mxGeometry x="480" y="240" width="160" height="80" as="geometry" />
        </mxCell>
        <mxCell id="Ns4UkMlDHWn5gxUy7XMD-3" value="" style="dashed=0;outlineConnect=0;html=1;align=center;labelPosition=center;verticalLabelPosition=bottom;verticalAlign=top;shape=mxgraph.webicons.mongodb;gradientColor=#DFDEDE;shadow=1;aspect=fixed;" vertex="1" parent="1">
          <mxGeometry x="490" y="245" width="20" height="20" as="geometry" />
        </mxCell>
        <mxCell id="Ns4UkMlDHWn5gxUy7XMD-5" value="" style="image;sketch=0;aspect=fixed;html=1;points=[];align=center;fontSize=12;image=img/lib/mscae/Docker.svg;" vertex="1" parent="1">
          <mxGeometry x="80" y="170" width="50" height="41" as="geometry" />
        </mxCell>
        <mxCell id="Ns4UkMlDHWn5gxUy7XMD-38" style="edgeStyle=orthogonalEdgeStyle;rounded=0;orthogonalLoop=1;jettySize=auto;html=1;exitX=1;exitY=0.5;exitDx=0;exitDy=0;strokeColor=#666666;strokeWidth=2;align=center;verticalAlign=middle;fontFamily=Helvetica;fontSize=11;fontColor=default;labelBackgroundColor=default;endArrow=classicThin;endFill=1;fillColor=#f5f5f5;" edge="1" parent="1" source="Ns4UkMlDHWn5gxUy7XMD-6" target="Ns4UkMlDHWn5gxUy7XMD-2">
          <mxGeometry relative="1" as="geometry" />
        </mxCell>
        <mxCell id="Ns4UkMlDHWn5gxUy7XMD-6" value="" style="rounded=1;whiteSpace=wrap;html=1;glass=0;shadow=1;fillColor=#ffe6cc;strokeColor=#d79b00;textShadow=0;" vertex="1" parent="1">
          <mxGeometry x="280" y="240" width="160" height="80" as="geometry" />
        </mxCell>
        <mxCell id="Ns4UkMlDHWn5gxUy7XMD-37" style="edgeStyle=orthogonalEdgeStyle;rounded=0;orthogonalLoop=1;jettySize=auto;html=1;strokeWidth=2;endArrow=classicThin;endFill=1;fillColor=#f5f5f5;strokeColor=#666666;" edge="1" parent="1" source="Ns4UkMlDHWn5gxUy7XMD-8" target="Ns4UkMlDHWn5gxUy7XMD-6">
          <mxGeometry relative="1" as="geometry" />
        </mxCell>
        <mxCell id="Ns4UkMlDHWn5gxUy7XMD-8" value="" style="rounded=1;whiteSpace=wrap;html=1;glass=0;shadow=1;fillColor=#dae8fc;strokeColor=#6c8ebf;gradientColor=none;textShadow=0;" vertex="1" parent="1">
          <mxGeometry x="80" y="240" width="160" height="80" as="geometry" />
        </mxCell>
        <mxCell id="Ns4UkMlDHWn5gxUy7XMD-9" value="Frontend" style="text;html=1;align=center;verticalAlign=middle;whiteSpace=wrap;rounded=0;fontStyle=1;fillColor=light-dark(#ffffff, #1a1a1a);fontColor=#333333;strokeColor=#666666;" vertex="1" parent="1">
          <mxGeometry x="200" y="310" width="65" height="20" as="geometry" />
        </mxCell>
        <mxCell id="Ns4UkMlDHWn5gxUy7XMD-11" value="Lokale Dockerumgebung" style="text;html=1;align=center;verticalAlign=middle;whiteSpace=wrap;rounded=0;fontStyle=1" vertex="1" parent="1">
          <mxGeometry x="520" y="170" width="160" height="30" as="geometry" />
        </mxCell>
        <mxCell id="Ns4UkMlDHWn5gxUy7XMD-15" value="" style="shape=image;verticalLabelPosition=bottom;labelBackgroundColor=default;verticalAlign=top;aspect=fixed;imageAspect=0;image=https://cdn.iconscout.com/icon/free/png-256/free-npm-3628956-3030181.png;" vertex="1" parent="1">
          <mxGeometry x="90" y="245" width="20" height="20" as="geometry" />
        </mxCell>
        <mxCell id="Ns4UkMlDHWn5gxUy7XMD-16" value="" style="shape=image;verticalLabelPosition=bottom;labelBackgroundColor=default;verticalAlign=top;aspect=fixed;imageAspect=0;image=https://cdn.iconscout.com/icon/free/png-256/free-npm-3628956-3030181.png;" vertex="1" parent="1">
          <mxGeometry x="290" y="242.5" width="20" height="20" as="geometry" />
        </mxCell>
        <mxCell id="Ns4UkMlDHWn5gxUy7XMD-17" value="" style="shape=image;verticalLabelPosition=bottom;labelBackgroundColor=default;verticalAlign=top;aspect=fixed;imageAspect=0;image=https://nestjs.bootcss.com/img/nest-big-logo.png;" vertex="1" parent="1">
          <mxGeometry x="320" y="246.3" width="20" height="12.41" as="geometry" />
        </mxCell>
        <mxCell id="Ns4UkMlDHWn5gxUy7XMD-19" value="" style="shape=image;verticalLabelPosition=bottom;labelBackgroundColor=default;verticalAlign=top;aspect=fixed;imageAspect=0;image=https://logospng.org/download/typescript/typescript-4096.png;" vertex="1" parent="1">
          <mxGeometry x="290" y="262.5" width="20" height="20" as="geometry" />
        </mxCell>
        <mxCell id="Ns4UkMlDHWn5gxUy7XMD-20" value="" style="shape=image;verticalLabelPosition=bottom;labelBackgroundColor=default;verticalAlign=top;aspect=fixed;imageAspect=0;image=https://logospng.org/download/typescript/typescript-4096.png;" vertex="1" parent="1">
          <mxGeometry x="90" y="262.5" width="20" height="20" as="geometry" />
        </mxCell>
        <mxCell id="Ns4UkMlDHWn5gxUy7XMD-23" value="" style="shape=image;verticalLabelPosition=bottom;labelBackgroundColor=default;verticalAlign=top;aspect=fixed;imageAspect=0;image=https://brandslogos.com/wp-content/uploads/images/large/angular-icon-logo.png;" vertex="1" parent="1">
          <mxGeometry x="90" y="285.65" width="20" height="21.11" as="geometry" />
        </mxCell>
        <mxCell id="Ns4UkMlDHWn5gxUy7XMD-24" value="" style="shape=image;verticalLabelPosition=bottom;labelBackgroundColor=default;verticalAlign=top;aspect=fixed;imageAspect=0;image=https://brandslogos.com/wp-content/uploads/images/large/angular-icon-logo.png;" vertex="1" parent="1">
          <mxGeometry x="290" y="285.65" width="20" height="21.11" as="geometry" />
        </mxCell>
        <mxCell id="Ns4UkMlDHWn5gxUy7XMD-25" value="&lt;font style=&quot;font-size: 5px;&quot;&gt;bcrypt&lt;/font&gt;" style="text;html=1;align=center;verticalAlign=middle;whiteSpace=wrap;rounded=0;fontStyle=1" vertex="1" parent="1">
          <mxGeometry x="320" y="265.65" width="20" height="13.7" as="geometry" />
        </mxCell>
        <mxCell id="Ns4UkMlDHWn5gxUy7XMD-31" value="" style="shape=image;verticalLabelPosition=bottom;labelBackgroundColor=default;verticalAlign=top;aspect=fixed;imageAspect=0;image=data:image/png,iVBORw0KGgoAAAANSUhEUgAAAd0AAADcCAYAAAA1Fnt/AABIcklEQVR42u2dD4xc1X3v0VOF2qemSl4DFIcC3vWuqR0TY9i1X10H+wG7C8I701JKaSNRFLVQVSlVITRCNKhUDTRNFZQ+UNKSJycmNIQURwkkqlOMVq4cQUSAxo90E7y2a2pWwekjdtd1tzbzzufMPeO745m55/4/597fkY4M9uzM7Pw5n/v7/b6/7++ss2TJkiVLlixZsuq47rvvvv+2/trGqvHJ5t1jk82d6yen719/7dYNmzdv/kl5deqzVt1449mXb9367iL2xunpd/C5K/L34/Nc1O9XxncnyfsX9z3g9uNTjds4J8YnG3sG7Jmxqel7eYwyP9PqeWwan5x+POK57hmfam7jDHT5M5Vmy+nmyNp4zfSy9ZONW8cnGs+oD94RtVuhvcAXRwH4jiQfRln+rfYB1dhb0Oaw26E+ex/nM8hnLG8I81lWjzlb0O83w0EOeNZPNa4r4uDjQjnue3D51ddfGOszooDbdU5E7ZmyDv3xiWZTPf7RGM91ljMx3nemeXeB35lEW10gvSinW4mLL4A6DG7mQFBvyLzlh3FBg1l94QTA1V3rJ6aviXmgZrn1RR6HWF6fMXX/D5b0u53U3zW+cwoERPl5/H5jU82r4r7mV1z1K0NxImkO8Ni/v7qwKiOgUI99KO5z5cIs1ms+2XyoxO+M7V6U063oD6D6kusDdWL6UfUGzKV8A48AYKKTOF9YWe6v4NA+6cAhcWT9ROPhrOFL2cSRQ3Avh3vW8A0yFYtxXuc432FSqUlARrRZ9MV64gusmBcIJV7IxXr95XQrYOmrUnWIBldie3N6M9XVe+NJABw3LSNLoGtzWHAIZpWedAi6euuocap5s2fQTXbRrqL8oj7H/E49ymUCXVnZL2piGyavX0cdKUgDFXmAttNn6hARAAt0s4YTz61q0D190E8/msWFhdPQnWycoOZcTJmk8XDy90KgK8vmQ3ZtY1UgEpmJKRzIax/SasCCBCSyqg1dU3+MW2/zBrrBhUVaKDkOXfaOvD/DBB2pzkCBrqyBKRSUhG3l8VGH3/BZruQBcF4CElm1gG5qUY7L0DXZojQRvQfQbXEO5PkZDtqDWgJdgW4mSyvyUB63P1hHPHizzwAwNWYOFgGwQDfFfjBJe5EH0NUgTApeH6BLNg69ST7Ajf37C3RlnblIz3J1mJHy2BkJuxZ3qQ84XxQx4RDoxk7HTk3fW1Ho6og3SarZE+i2shSPmaVNO9pZv5ZAV6AbP6JVUWAByuMl+wq11002W2uv/WX9Z8Efij3Bgbgpr6tgWdWCrn6eMQ9vj6Cr24riGzX4AV3q11lnunRgksVnV6BbnwVsuLrlYChKeWxAu1qBFthuvfra1i3/a6K1eeL61qXB3xUM4EVjH4cgomibQIGuV9ANIkL7/k/PoNuijBTnO+BNpKuj3cZtWZ6dgcNZS6Ar0I0+CALP4+BDs1DEm2BAC1gB7J1Xbml96bLLWv88eknrqytGW4+oP/9o3Vjrhs1Xt/7n1HQHwFcU3aMpNpQCXQtFrC2Y/INuvFSsV9CdbMxm1dnQ1rmUI9TzBLriSMUHHZgEpuFHi0ofA09gC0h/b/NVrW1j462XL1nVOnzxitYPLxpu/cvyEQ3dx95zcevL77mo9aULLj4DwGtLAnAwiOGOIjx6BboxnIZoVWvbisbYWnX/8aDFbaEoMMWFrjGviLuD12Rb4PNcGJw8g26LYCOLUlymJbj8obsnyWcq7a5nnbajPG7sKEp5HAYt/0/q+KENv9ja/d41rddDoJ0bGu1soPv5n1/e+sKFQ3oDXgD8t+rvHImAjxgf6Lhm7bIyh+58mmilPd1q64ZAJLiQpkZoI8aLHelONZ5M83p2fM5Tpz7t4OQfdBuH0hrpBP4ELX+gO/24nDQ5Lv2lY9JF+1A5VDRor7i22brx6qnWxzZuaj235tLWAQXV+YuHNXDDoB0E3fAGwGz++1MqQr5jbIMG8HjwmCUAuGNDKQAuB7pZuY8FwsEX84x2E6SXMzFzAFYBHI7mGe16CF3d/pXqfM36+eQN3ZQXcrL6pDsYLhBYkc0WBaBuQdRHf+n9rW+8by0gPUVESwr5QB/Q2kLXbKLecARsAMzj8lyMAKtgAB/S/ctiQ+kldE9fpCZs+1A/F1V2KAu6ncdvT3Gaz+uiwlPoHkk6OAXBZdnmKwLdklYnTabegFRX6ykEURPXXLdEEEVEC2i708dZQLcfgMMRMAAm0i4pAj5kxqiJDaU/0A1FLzOJbCIjBHdlQzcE3iQR746KQpee688kKtflkT0U6Lq92j6fxSuP+wmiSBsD27igTQPdvgBW0fVfrF7Tun3DxrIBPKfHxKnDTgDsPnRZwZSYzGehugDdFHXII1ElFF+hy0UIZ2ks2LWFeC2Bbg0iWheUxwiiPj2+ofXCqtWZgDYr6NoAmIjcALgEE45ZACw2lG5DVx9mKJwzjgZdgW4wDH5nfCA0mxWFbiwYtdssczp7BbqO1GnVwYJYpyzlcbcgCsBSp33dsk5bBnT7Afhzy1f0BHDREbAuAwQ2lOKC5R50E7aCDBQcuQLddqTWbGYtOvIauu3nvcnugky3Y7UEuhVbHeVx+w2eLwq0gwRRpk47lzFo84ZuLwCzAfCfrXlf67c2vl8DeG1Qny5YhHWiPa91+l7q8nUGsEvQTQjJo4Pqui5BN9FFRcSB7Tl0rcRwwei+BYFuVSLaQHlMYb/I4QImqg0Lor5y2bolgqgDOYK2SOh2A5jo10TABsC4ZIUBXGD6+QT1eWNDWTcAuwbdACJxns9Jvr8+QFc/n5jD1qP6kb2Hrk0KXUHLpdGRAt2Eddrgw/pgUcMFugVRQCYsiAK0WdZpXYVuvwj4UfUcHAHwDEK5uthQugbdQMkcL8s0oLXGOei2S1axVPmD0ueVgK666O13YRF8PhcFup6Ctkt5vFh0ndY4ROUliPINur0iYAPgP167rvXrm7acAeACU9DahhJxT5UB7Bp0g0M+lpvTIAWzc9BtT8ZpZfV6VwS6LS5GegZHWYzuE0eqYhcHZiDXnylSeWzqtEYQhRVjWBBVNmhdg24cAIsNZXWhG0yPmakqdIPXOxZ0axDptscadnUXJBSeuei9PKd1QllsbQaU3bSm7FJU6mAMKY8LA+3aIKLtIYgqvE7rM3S7bSjDgxgMgJcMYri20BR0pWwoXYx045rNSKRbCegueR/1fPGiTIf8mzK0ww3QdozG1ZVACcrj1QMcolwErS/QHQRgBwYxzAdXoN7aUDpa0z1S3ZpubJOMOd8i3TYsdRkvbgmv0/6VoPbdMmNBYz+ud9AtMV2tlcdcObaHC8yVKYj6wuVjnZF5LtRpqwjdXinoXpOQ1ooNpbfQTRAJLvI7+ALdBP2mewYp6h2NdPfoemwi1XHz7hSj+zYF7UUC3czTT+3pJA8VqTyOcohyrU5bdehGDWIoGcDahhIAu+6C5Rx0Y7bUABFf+nSTTcgZfMC6GumeFq7G7q89kmgs4kTjmcRqZ4Fuf+UxvZRBnn+x6DpttyDKZmSeQLe8FHT3JKQSfaBnuUB01YbSJegGUDqUVoDjKnSTpEw583yErnlPElxEJW3129R+PD1cQqCbRnkc1AZmHBFEnTKgPeA5aKsK3V4APmMSUjmzgBd1ZiawoXQFwC5BNwEgIw8gV6CbNGU6KHXuA3SDQRb52uhONbedzpQIdGMv/SZhfN7uz1oouk47yCHK1/RxXaHbbxThkklIJc0C5mAKgFCqD7Qr0A3GZMb+vvfq73QRukE5rJWliMoH6Ca/mEpmAyrQtb0KZE4iyuN24X2+SNCurpAgSqAbMwIeMAmp4Ah4j/GBjvKhrSJ0g2hoNo9h6C5AN5ietJgmgvMZurnNwe0BTIFuVP1motkMPI8PuSKIqgto6wzdOJOQCgbwgml74Oq9CACXDd1AbLM3r8OnbOgmamExUfxU47oqQLf9PHWZMPOOge5eeYFuj7oGX/KguD5bJGh7CaJ2v3fNkpF5dQKtQHfwIAYAbCYhlTQLWAOYKCnP9HNZ0NXOU+0IMGlmazGq3lkmdHX03m5lzNyP2EfopmgDGthedKb6XaDbXdd4sQzQ9nOIqpogSqCbTwTcbxBDQRHwoTz7fpNAN83zCc2pnkmZVnzG5mIkPnST18tCbTIPpi2TRdWqfYNu0KN8c5ZdAb0+h/WAbowLwyIdolwYmSfQrU4EHDUJKUcAz+SZZk4A3aPtQ4d0od0OWv0eCsSR8xnVwa2GnyeIdPfG+d30RCoeQ0W1QVCRRZfFHtvshk/QTeKrPWByz229+7ydhO6cLqOS+Ui7tQNeDO/lvGq34TpttyCqzJF5At3qAthEwN2DGHJIQRdhwH+y5Cv3eFHgROPhfNuQSt0nbC8ofINuYvOKGKl3N6Fbom1jlunlsBVjtyDqcE0FUQJd90YRZtBa9JBAd2kkGie97R104wPAK+gGs8x3pHiNTg4aeu8kdMucp5t2NuIgQZRxiBLQCnTLqgEbAOMDnd0owjPFIjWG7kKcKNA36DK/Oa5pim/QDfVkn0j6Gg0qtwh0zyykb0sa1RrQIoj62MZN2ooRYBjlsdRpBbouR8CJfaAHXNXXDLqLg6YJ+Q5dDaoEqnAfodsOwBIpuyNr+QLdFF+AbkEUyuO6OEQJdKtlwtFrFCHwtZ2cItAdPDO3AtCdHTS0oYrQbVv8xh7hGGkWItDt7cxilUbuJYgS5bFAtwqDGAAwJhwWNd8jSQ/jCkF3wbZ9xkfoajvQFO+xr9BtR7vNZtC7ezRizyNGsqnlC3R7v8hWddttY+M6dSx1WoFu1fZXzr9AK58tot3ZvGfzOg7dWRtXJm+hqw7jtO+vz9A1phlcdPTb9D3zfG3b5gS6CQvopJVRIgNdgWKB0FWv98BtwBF1O5v7qHnUy8SjKOhyeOU9DMFZ6KqDKg4cPIPuEQRyWfRf+w7dzBkj0F26AmPzeRvoUsOtM3RfO++CVHufOthtb0vk9fl3nRu5H1O3237uMqvbDrqPukOXNDPp5UujIt1gMHedoKvbCqeaN2dlCOIodOeygpJAV6Br8wbO2kAXJ6m6+iEDzMM33dCav/3WxPtfrtzYeuPW37C67Tdu/22r/eWNv9j66q/dYH37XvtLl11We/AS6aJojoJuHBMIz6GrJy1Ru836sHY2vRzHVUigK9BNuoLG6EgbMA4jzC4AUN3qua+de74G7qmjP2olXf91eH/rh3/wu623F49b3X7/3Gut737/BwP3q4ffaO360/taf3/n7+v/jrp9r713/8HWP277Pxq6j73n4tq2FJFmp/UtMr08NX1vhaF7gsMZ8w+eQ15pdIdrunuy+J0Fuh5At0xHqvYTnn7cBrocSgpCp+oEXSLcg+vWthbnvtdKs/7toT/X22q9fbL12v/9buulV77beuWf9vbd//TP3299e+c3Wk+Oj7VenNml/3/Q7fvtvfv2a3CTaq4rdOnfpQ0uUr2cUTSUMXRPtE1u1PeY+dcxNv6zXEggqEQgU8TBnAC6h+L+XsEc8COxLzospiQJdP2HrlaoM66zwL3k7LB5whxGtAzRKlQb6KroB+j++9efSgXck28ebr0+dVXrP7/3SqbQZROtfqW5VaeJgWcS6P7Tq9/Tf3I/29/9c7VMLdMyRK8uZi9p56mWAN35sg7UQqCbMBWoLyZyGFIv0K1CpFvODn8J7rCBLocSrlN1qeuSVv7RAx9tpV1EuP/6y9fb/0AM6ALamU/9Zevx4aHWd/b8Y+Jo97vf36ejZeq7CLPqBl1m9QLcCGeqBaJBJ6Gb4RB7ByPdRAMmApFo3AlDR9P2YQt0Bbr9Plunn7Blry6HEg5Uh2sA3dd+9jxdx7WtwfZb1IFJT//4sb/JBbpEqcAW6P7DfffoGm0S6BqAd+q7NRJWAV2sIS2gO593j65AN9upTklsbtPW7QW6At1I6Nr26lLXxY2q6m1D+5Zd0Dq4fix1HZcFbOdGh7WQKg/oGlg+88Hfan3xvavb0W6QLk4EXgXtb95zd63qu7QL2fTo4tRTxMEl0M0Qum0AxjXyT2WAItAV6EZCN06vLhOEcKSqeh134dlnUgP37YUfa3jTJgRIc4Pua3M6Qv3cz/yPdrSbsLZrImd2neq7tj26TFPJ2xhDoJstdOnO4H2L7yud3OZSoCvQjYQuV3U2b6IxyKhyepm0chZ1XBPl/uC//0zr2Jcfi0nreNAFki+/+G1dj2Xz30lru0acVaf6LuplenQjI92J6UeLOKQEutlBN0gx35zggJxJeoEl0BXoRkKXDxc9ajbpZQYeVFVIBXCJStPWcU2UixnG/lW/oNXLeUI33Paz7afe0XruLx5IFe2a+/vW49s1lKpc3w336Ea1CwELga5/0AU2gYl/piPrBLoC3cTQbV8N6r62SOgypL6KLUNYL5IKjlV7HbCIbolyMcSIT+wE0H1trvWtJ7+oU8L07epoN0Vt19R3Md+ocn3X9OjSDhfVLlREj65AN3votg/l5t2xD8mEmQ2BrkDXCrrY20X90NrAIIP5uZUCb4Z1XM1MFSnTIvTaO89J1uObALqv7H219fIrL7f+bsuVp6PdFErmcH0Xm8mqghfofuqSVTY9uieL6NEV6OYD3UC3Etcs48jlV19/oUBXoJsLdG0ayY1BxgurVlcqxUxa2dotymIBWoBL5Bw7tZwUukG0i/IYQRWezEAYGKcBL/VdFNFEz1Ws79IuxEg/V3p0Bbr5QDc44z4T/6Bs3i3QFejmlF6OFhuYQwmDjKqIqQAuAwayqOOGo1xSy2/e++GEd5IMugDy+a/t0DVK0syYZgDiNNDt1Hef/KLuBa5afRflMj26Fu1C81mMtYtxSMX6MieJyMpasQ/IjCY7Ba2RcT2t5+K2DwUXTbHsJxNAdz7mY+wtDbpTjesSTLZ6KNZrrm7vAXRP9ro6i4QudV0MMqrQNmTquImi0T6LFDV9vuzju79ZKHR1VKv2juumdLRLqploN21tt8r1XdOje6lFj24RxhghOMxYbwWlop5bNpFu49ZYv5+CdBaPG7QPPRTzsWfiCqrIiMR9/+JkKrTwta3BsX+Mqea20qAb9/OsNi6JMbMndyR4XwvdtK51vTCNVVFN5Aa6DLP3PtLF4EPtxGDsA0tcrEgto1xOPJUoKXSDqNTAkXSwjnZTKpkN0GlD+toHbqoUeEkv/9bG99tAdyarebI2cOBgjbPP8mjx+xGt2fxe5nZlvbZJHr+I9y/u/Zf5GUnyesT9rsX5TJW5l8rq1ZWWTZ2Aw+ljGzc5CV2iS/ySzcD4qOlBsawZY0S5pKyP/Mk9qeCdFLqkmJk8RCoYOBLthocapBFVEe0asdagNDMjAgE+KW62qyMDEVGxb9h8dXR6ucz5m7JkyareIvVAsd12mL2L0AV0bGqq+B0DVg3hMIgDpbLxQz7xnW+124TiOEYNinIVcLn/VBF0CugSkZrJQ0AXOOJWZR3tBhEtAxCoB/Nz/D9iKurFu//6Ya1mNvN39Vb/bQDLBvgIr7gdDllExy7Wgg10Gem3NtqN6iE5JWTJkpWtwEHP5IyGLsPsaRk64NhEIOP8hJgJkP7HC7s1WN+85w81EAEt0NUQVnAkDawBvH5M/zvCJ+4DEOs6bwwQ81j6vhXcGeOHOUYp0A3qr6SVDQSp8epIt1vJDGDV32vAqp8BsmaAAsIp7oORgfw87lQAFpBTLzbpawCLUhrAopwGysCZPmHg/+rhN7QvtIuWkuEeXQtjjDvkhJAlS1bG0J1+1KZtCIMM13p1AelAIwoFsiUgVoDtRMTLLtBqY7P1wAP19wbEb/31X+nIFRD3VDmr+8bJykTVqW0kU0KXyBQbRwYg6ChUwREYAlYNWBW9AkTu3wCWvt4lgFU/B1zp+WVraKqLim7Akso2gOV+ATf/rXt81fPg34h6XYx0qed2enQjFbTNppwQsmTJynTZ9M8BXdJxrg2zB5SxI0wFN0AKUE1EbEAMPHuBmH8HxNwegPPz1HJN2po/+fsyoWvAS1pXR7sKusC0F2ANmMOA5b/DKeJuwHLfOjIO4N2vXtxpYXJYuWzm6EZJ/VFgygkhS5asjKGrpfyRbUNEBhhkOOVKhRp5dLj1n997JXWfbb/UtBZJvfOcpSBeP3Y6bX3eBRrKqXt+M4AuESegBLhGyNQLsKSJB6WINWBDtd04gix+BsC7Oq0oRo/ukaJ6dGXJklUn6Fo0MZth9t9431rnxFThum6mK0hNU+vtTk2HldI8fibOVllEusHkoXBq1zhKRaaIwxFsCkcrM+fX1RYj0suWc3RnfeqDlSVLli/QtRxmzyG1bWzcOYMMXdf98B2tIhbRLKll1NI8blaRdlbQNdEuaWStYg5UxkCW++2kiEM12NS9vN3QD9qLXLWPJNKlR9cCunt864WVJUuWByswBT9k06vLMPsfXjTsnMNUJundGGtx7nt6fB9qaNLQqVuPMoQuoinG8+m+2Xf/nAagEThlCdiofmFXrSOJdJmjG2mMkZENoSxZsmQtWYGn595xy2H2rkGXNC8ABIRFLlTT1HhTGWLkAN2wipk6bhaTh+Kklk1N2fU5ulGRLhO45HSQJUtW5isYZj9jA12G2TtnkIGCeNkFycbppVion4l0sX5M1Z+bdXpZARbQAlzagFAvFxHlmtT239/5+87Wc+P06CaZNCNLlixZVmt8cvpxm/QyBhmA7oCDU4NS98mmmJ+byUzeLKAbGF/QFoRKGQBmMXEozuPz2K5GuqSWHxm9xGaObgtVv5wMsmQVs/auWnX2D1asOEft4QMrVly2/+IVG9hzy1dsDe/9F18yaf6N23F7fu65zZt/wjPoRo/dutThYfbUdTOrrcZYqKZJMTMm0AXo6nruk1/s1FNpAaLOWgRwl5hzOOq7DHTp0SXKjTLGKGp4vVmYt3PwFL2reIBzAMtr6N7iMw4ggeW+oZEb5paP3LV/aOSR/UOjz6pz/CW15+aWjx5Rfx5T+1TEuX8quN28/rn2z+/k/uaGRz4EoNVjrT544Zp3uQndqcZttsPsMch43cEUM6082k+5wMVEIXp2UTCnriln1KdLdEuUS3tQUcA19Vz8no0/s6vQNT26EdA9ygSuIr+DXMGrz/JudRA9V9hWj6cOqdurdrjrQ7eo11Id9BzugtTe69Do6Ht0hDo0ep96rZ5WezaAZRFseCuA8dP7hkY/wncM6LsB3Ylm0wa6pOUYZv+6i9OG1IGaSZo35iKtTbSLbWSpNpChHl1qqrEGHmRYz3XVFCPmHN1DcWadZgLd4dFbSvnuqMiCFF2VDnod7RT4GpLqFLyezjK008IjdynQPRVEoq5wYlHtw/p5qQszIu7SXqigV3fBxiCDYfYuThvKzKQi5qJHN5EdZdYDDwLlMAIqjDCyGmQfp5bMlCPXoWs5R3dv0cO/9w2t/M0Svz/bq3Tw7xsa+WSBr93xukOXFLuuw7aj2efnhlYueDJjnYh7N1Ewz7/QunDQqztvo2DGIMO1tiFT12UAQdF1XR6Pmi6CqrJH+5FSJrXMQPsio1wf6rlmW83RnWg8U9Twekegu3hgeOUWga5AN3bqWNdPdZp90RPQ9n0fKRXMLV/5wUJS0FzV2wyzXx0YZLjmSmXSy9RX9Xi+ghdpbVLMeDaXOcQeqGBMAQCLahNaYsjhqCGGaRf63PIVWgwY2S40Mf1o8aAoFbrs3VURBQl089YfrNgQpPDnPQdtn73y4Nzw6CdyrdXH6dXFIMPFmq4Bb+ppP0l4ufBj3a+LSUdi6KeALlEtg+OJcvE9BoKFtQkFvcF4OrucWg736Ea3C03fX0PotlTU8jsCXYFuv1ot2ZCgTnusmrDtKcTantv7a9uri0GGay1D4bpuakFTwsXjEu0mHr6QFLp7X9X1W+q4QI+WoaKha1LbLkM3zhzdMnp0nYCuusInZSjQFegujWy1sn5nTUDbW4A1PPpE5iWYscnmQzbQZZi9y9DNpGc2waJdidahxP3CCaGLapjULopljCnSTglKUs91eWh9GLp/tuZ9bUFg1Bzdgnt03YHuaAtgCXQFuizERcDGome2PvBVkW9maWds72zahlw1yDDpZdK89M+WsZh2BPgTTR1KCF2iTFLKpJZnPvWXhQqoTD3XDK13WUQVY47u0Q2T16+rK3RRnpbaSiHQdUIgFbyGxwS0vdPO+4dGH0gtuBqfat5sa5DBMHsn67qoqtVmBm4Zi8dFxZzIkjIBdI1qGPEUPstmAH3R9Vy8nl31W07Qozt/+dXXX1hf6Oq9s2j1tkDXkVRyu198TsBqtWfV63VTiki3sclmmD01MYbZuyqmym2ofQw/ZlTUsXt2E0DXAI8oFyFT0VEuaewlQ+vVBY/L6WVXe3QdhG4r1WEi0PVuYZASiKQEpgn63BNpIbC9szHI4NDCIMPFtqHOUPs/+N1C5+v28mOOPfUoLnRDww2opdIyVJjPsnpcYEs9mUjb9XouymW2TY/u2GSzlCjPNehin+esb61AN4/o9rDAM9Wew0861guP7V1Ur66B7qfHNzjpShXeRJwoioues6v9mNetjW/UERO6ppZKhPm1D9xUCHB5DECLWhrxFhEuaW3XDTHMHN2Ja66LrulONbeVAwrnoNvCYUigW13oUpMkShNgZitEtL5YZZi9usp/0UbB/LGNm5yHLrVVIk56Z1E0E3kWJbCipos1ZCzgx4QukSZex9g+ap/lnEb4USMmjc2fRNOksf9uy5Ua9qS1XY5wE83RnWh8XKC7xJd5tUC3etDV/sjtYQACyxyMZqy/N9jf2Rhk3HnlFqehi4qZ1h097/bc8zV8+RNl85E/uUcbaOSZfga2QDdWz3AM6JrhBtgu0p+rfybDNqFw+vg7e/5Rq6LxVUawBWgBPSllImz+znXoxuvRnb5DoOu3L7NA1+qz9pbAMU+jmdF/ZbpS5JsxNjX9GRvoMsyelqEDrka5P3ueBh5gxaKRSJeIF/iygbJJP+v2nhz8mnlMIG8N9xjQBYYMNwCACKmyElDp9LG6L9LHRM+kjwE7kDVRLfAFwtyeyBfoup5eNnN0LUb6tZi4JdBdOrcUcwSBbjWgS6uL9N0W99ngex0F3XttDTJc7dU10P1/n/rfZ0wDYgoRICTqJf3Mn+H0c5a+zQw/4P6thyDYQhcB1T9/XztAATwi0TRtQp30sYpuqRGTPiZ6BrDAlg14v3H7b2u3q04UrH6G2/sAXdOja6FcPsnELYHuGft5n3yZBbpnLvX+/fT+oZHPCgiLNdOIvGDF/s6mVxdBCsPsfYJuWOiEwpj0Mz29RL3AkXQwQH7z3g+3089pxvQF7UPcH0rqLKFraqtAERAmqeUacBLZoj4Op4+xctx+7jJ9/6SQiaQBO4+j7SWDNLYRcvkS6Vr26B4peni9J9DFl/lDAl0/oRsIpp4WCBaeYv5EdNvQxPQ1tr26u9+7xt1e3QHQDRtZYNs4FxpTqAGsfpY/mY9LZJwm/Uz6msewiqAtoWuGGyBkAnpxfJY76eMXv70kfcx9AdswPPk7ot5XD7/RM5L2Dbr06Fq4Uc1evnXruwW6vWtUvvgyC3TPAO5ugWDxLURWjlXY30X16ppo12mDjITQDTtbMZ+X+yH9TPsP0XHc9DO35+d//NjfZAJdLaB65WUdgWqfZWAYIaDqTh+jeDbpYw3aPupjoLvzzv6GG75B12qO7mRjT1lOTM5DV7cQjTwi0PUHuhq47Vm3AsHizWVusXqTsL9TB8+hKOhyeH3h8jFnFcw20CWF3Be6PQBM+hmnKWbmUqe1TT/jx0zUHBktW0A3PNwAIVU/IHabV5AiBtIAUke15y6LBFWVoEuPLp7hFtDdUbKi1PU5ows+1C8FugLckvvbn2UUotUbhf2dba8uw+x/eNFw9aHb1YoUN/1sIupIP2hL6BpDCiJePVGoC4QmfQyUaenplz6uC3Tj9OgyaUugG+3LbH2gCHQlpVy/fSzW54HUGjZ4tsPs6wbdQelnUsj90s+0JyHQSgNd0sQImoBc2GfZ1GlJM4fTx0Szg9LHdYHukh7diOH1TNoS6Nq47kS0QQh0S1Upi4ey4+Kp7oUNng10GWZfi/SyLYDPPV+nn0knd6efaUfi3wY6YkVAF/iRJgYkpIwROBn1sUkfG1japI/rBF16dIlyI3t0p5o3C3TtpqukHmsm0M18ETRRdxf4lfe9SDb4YHL6fpv0MgYZPJCLbUOFQrc7/UwPsIJwOP0MbPn/gdOPBkE3GG6A/SLpZVLLJn0crtNmCb+qQDc8RzfSjWpi+hqBrnXd6gGBrlvQxStbwOdhBmh8qnGbjZDK5WH2ZUHXRL6knI33M3+H+QbQ1UMQEkCXiNYMiiei1enjd/+cdoni7/IAX5Wga9mje7SsHl0foUvtylVf5jpClwk3mDEI/ErbTyfWOmCDZzvMHoMMF9uGyox0mTCEaIoaL/+tna/U5t+Acd8hCAOga4YbGOMKXKKo1RLpYpRB3y7/JtDtDV3LObpzZfXoegpdZ32Z6wZdLn48H82nLhZWHsT5jM8U79++odGPzC1f+UFab3B1OjC8cgtexnoMIX+vovrgdk8FgxvK/P2PpfoMYIMX1asLdBGmPLfmUifrutbQvShb6JJaDg85QFhFihn4mtRz3yEIfaCLgAo1Mr25plaLBSStQ1pEtf+gTjeTes4SvJVpGVLvr+Uc3RfLGF7vOXRPWZm6C3RzFU55qFTG+3kWwO4fGrmd149aaFKrUV4DdeExDJg1rHHfYuCAL6WWoFd3PsqVCiWoq8Ps45hjAMJMHvO8C7RKuVf/LtGtnnikIl7SzD17fPtAF+jhHmWiXDPgwCiWw7ch+s0CgCaaJoL2Gbq0C31u+QpdCrEY6fdMWcYYHkNXD7vn0BPo1uJ3TS004vkSueb9mQHiKiq+Sc8LzhfAs9bzc/st5upih2czzH7b2LiTbUM20AVyTCDCg9mIn1KllpddoO9vkEmGSTP3HILQB7pEs6SRTfsPoDvDb1nB19yOCDUppLh/ft54LhNh93O88gW6pkc3ql2ICVvlgsJb6Lbmlo/cJdAtQTil4OVBHZfn9zQATA2nNABWEXWQvnavfY6rfXUIzdi0DblqkGEF3dBgAlTFRKB68IGCYpK0ctRgA/5dw109N2b62kCX1DItQRhcaNtGFYEy6aeX3zLQ7Yzai9mba2CL6QbRLbAlwu023/ANunHm6DJhS6Cb3JeZ9J5At9A67jlBitbZsXbqc/EEKV+Xepgph2DwkpVRTGbZsfHJ6cdtDTJ8remewbyFH2vxkxn9ZwtfI57qK5DqAV3qvFbQVdDDEIPIMwq64WEIVrVddbEELLkt4ESopacJ4dNsMSrQB+giovqzNe/TUW708PrGrQLdavgy1wG6TvfjKti6bhdKlmDf0OiuFL/nWwdWrLgssyc0PtH4uE2vLgYZvrYMDRpSYMRPJh0c9Vh9xVHd0MVCctkF2iwjjpCKNiHtMBUBXT0QQUWpxpEKsPaMbBUkTRqa8YBEyKSs48zl9QW6f7RuzMZz+eT6qcZ1At0SFZwCXeullbxuppVfonXpLE8Wwq254ZHfYSJQIc5TgyPd5t22w+wPeOpIFbX+6/B+nQbWPbfq/nqpnI0JRuTwAwVUenT1/aif037NMWq6GGIYIRWmGIPG+RHtcpt+rlTGg5n6r6kP8xhxZ/L6Al3bHl0mbAl009a3Rne5MOy+ytB1U628coEWnrJqthnVfB8JVNXlOLJhh2c7zB6DjAMVhK5ZABIRlFY6d4mtosRT4dS1rhmryBk7yJ4ezQPUy2Z+LsDc9af39VUUh0VVtBWFRVUmPc2weqJlYHuGIKti0DVzdC2gO7/xmullAt0sRFUrPyjQzTWtfLtr0a1LdduUn5sbgn7h4r3Hg17dRRuDjBdWrXYuxZwldMN9vSidTbqZ+ixOUzYD7oEssAW6uq1o8Xgs6OrIlUhXbWqv1F0HDrpXMA0DEeBSF+Z+9Ni/FLD1Bbool9mWc3T3ltmjWynoZtFCIdAdJJ6ac+i93p7Ia9jhFRiNDBJa7cwlm4MdHik3G4MMF4fZ5wFd1sKzu9qzdQPxVM80cY+FyMpYQ/ZVOfdNL+/TkSn1WSJX0sIDI90QeDG3MNOGqN2aYfZpgesLdPmTbIyFMcbOMnt0Kwbd0n2Zqwpdh7yVT2FCUfZ3Js9ab5/P0LFMxVPhRaoNW7yoXl0OM9pMXDPIyAu6//701zsj/d74wC2xomQ9jaifcjlCSGXahjCsQFRl0siDofiDNqwDdynqwnGEUr5Dl9Sy7Rzd8YnpR8tPbVUHupkrOwW6uu6oHmvehfqtCyWEYj5H2t3qVCEXkxhkRA2zNwYZnx7fINCN+rmvP9Ux4OipXB4EXRTJr7ysFclAlz9RKEdFrALd0z26kdCdbDwo0M1cVPWUQDfTKPeB8uv1o0d8UidnsbjACMA7l/s4S2zxbBTMH9u4ybleXdegS0sRqWXEWH1T0v0GHhDRqo0ACugS8dJPGwXQukM3Xo/u9B0C3TzAW84BXTXoBlFu2QMN3qK39awaLtqKcNTK/YGwxbOB7p1XbqlNTTcpdGk9AroYb/RULltOGQK6AAXYRbX5CHTbc3QtlMstJmsJdPNRtpYhqqoadIM0Z6nuUoVAp+4LWzwbVyqG2Qt0By9UzszWRf3cV+08CLr7D+pWIeCJEpnhBlEKZIGudY/uImp9gW5uaeaPCHSTLy5aSrd7VJGeELGAZdOrawwyXBtm7xp0aRMCuvT7JhliD2DNFCGUyGbSkEA3kx7dI2UOr686dBH/FO3LXCXoBpNyaqtEr1mk27zK1iCDYfYC3d7r1NEftf2c33nOYLvIAdAFlmaYASnmb95zt0DXArqWPbqzZQ6vrwF08WX+rEA3YT2R2bDlvXdPP7d5808IDQtaQa/uQpSCGXXo7veucSrFbOuHXAR06dHVPs7nnj/YvWoQdIPBB7RnAV16bsuu6ZLy7kw1cgy6Zo4uF4QWyuU9LvQbVhm6+AQX6VpUFejSdlWix/Jc1YwvnF82vbrjQa8uBhkuKZgxryCli39y2dA1PbqYYww00xgAXdTLtA3Rowt0UTKX2adrgM99xh0jWPQcXQvo7nDh+1Zx6LJ3FxU1VQW6JbYJLTICTyhY8LLp1R0PDbN3rm1IwZG07onvfKtU6OqfUbfnuZBqTgTdIJ0L5IDu3225UkN4EHjzgi71ZaJuwB/2dnZ2jm7U8PrJ5kMC3WoJcqoA3WCwwUt1H9NYq6WH2Vv26jLM3sm5ugqQRJh9DSkKgC4zejvK5YhJRIOgSw2XWi7QJc2se3UHDpnPHrompYxBh6vANdClR5csjA89uiVBt4S05cqDuRsMVAS63GeMqTdZ7sOSVi5XwbzNdpj9Dy8adrNlgQEF6rkBvzKg+6MHPqqh++a9H04HXRVhznzqLztD5xExDYJoptBVETXA5f4w5+A5uApcA10zRzcKuqj0awjdU8Eos+JtBbOeQ1pR6PI6lZSN+JCQr0wx1eT0/TbQZZi9i5FuGLwImQCgzVSgLKHLgAOgGwl9i/Qy0KOGatOrmxl0AW4AfGDfb06vaz26t2/YaDW8HpV+HSNdWlFKMtA/lrcvs+/QLTG1/BKPLeQrNdJt3GaTXsYgg6tn10b8LdnBwAGMKgbWVrOErgIpaWXahY7v/mYq6Jq2ISJNIMqYvkFtQ1lAl/Q198M8X2CrRVPqdfQBuj716JYE3VvaxgvR80N9a0XxHbqBavl44bVccZ1yALoTzaYNdLdefa1zBhmD2omSKpvjQtf06AJ8WodSQZfBBy9+uzP4ABDmCV0ia6Jc2pNIJ7s6qL6fetmnHt1SarqBqKmsoeh5+jL7Dl1SvCVFuWcL9UpeGyavX2czV5fWDAwyXnc4xdwN3iTK5rjQBewIuRhgHxldR0DXgBTV8Lafekdkr24a6HYrlH0Drm2PLur8sofXlw1dDtq55SPPVWnYvf/QHX2i+AlC9RjX5/y6/OrrL1SH03wUdPnzuTWXOl3XzULZHBe69OVSSx7ouRwTusAW6H71125oQ7RP21BS6BI9+6BQtunRjRRRTTSecWUQd1nQ1enM4ZVbylAz5+XL7DN02/XcwlP+c0WoymVZrFU33ng2KbgoVyp6Ib9y2Trn5uraKptt3aviQhcHKivlsiV0ASKDD4AuvboAt1/bUGzoGoXy49u9UChH9eiaz+bASHdq+jOufNfKhK6OroZGt5cxnzUPX2afoRu0Ci0WnOr/pNDOpbruZGPGZpg9Bhmutg3ZKJsZv/f24vFMoWt6dI99+TErqO+fe02Dtd9+9fAbGqTUdJ8cHxs4VzcOdAE3949CmdtrhbIHgqlBPbo2c3SZpCXQbS/gV0oLkYK9QDcE3eJr7It5jyaUFVvBbNeri0GGd9BVz3ffsguslc1xoftvD/25Vi4T6QLgqE0Uu/POu/tuzDG09eJ7LtbtO6SB+9V1baHL33Fb7tsolPWfHtVxu5XLpkd3PNIYo3GrQDf8HEqZ27qY9XB0z6H7SNH2nCKgci/SfdDWIMOnmi6gRUz1xq2/oUGqI94IZXNc6AJxoMt9A/eo/RUFPAA5aJs+WdK/QLVfr64NdLkNdpJGoaxVyuo5UC8mknbRV9m2R9eiXejk+qnGdQLd7npiKf2hmR78vkKXNqqiRW30agvlHFvY5Nm0DWGQ4UPLUDit/PrUVa23F36s079mEpBRNjOoIC10uV8NXGrHFs/pqytGW5//+eWRYAGO1HTTpJdJJxuFMulqboO9JP2/gJj798EIo98cXYtI96grPbquQFfXdpev2FqS3+/tdYcuYqaCB9YXOv1Jlm2ka9mryzB73sgDHkLXjOAjMiXiJDrtpWxO6r1sUthZQBc4GuAmbRlCMIWNJAplRFnAlX/nPvk30w/sG3T/NnjtLHt0513p0XUJukGa+akyfJmz8vz1FbqBKcaxIl9zcaByMdK9dusGdUCdsBlmj0GGr9ANR6f01SKA4jZhZXMS6LK4D6LoqIg3Crph4A6ygOwHXf4urFAGuKSRiW75N6AcNuHwErrq4obPogV09zJJS6DrwuGfrYrWW+i2W7eKbNl6Sgjn4Lriql8Zwi7PxiDjhVWrvUkx94OuMbXAM1mnm1XUi7KZlp6FZ3clgm4YvIMi3kHQNcB9cWZXJHB7QZe6LepnPTRBwdT8nQY4zlZBv6/P0CW1bD1H16EeXdegq9PM5RjuZwIwX6GLNafUc2VZDbOnNYPZpa4Ns08K3U5k+/WnOlEvEDY12iTQNeAdlGruB90lEe4A68d+0KUGTKSLQtlEt2ZgQndN2HfoduboetSj6yJ0S6gvmr0zrS+zr9AtWj3umtcy7zuCOv6swuZ3SXRhHxhk7ImCLuk8DDKqBN1O1PvhO3SUSp2XwQ78dxLohiNewK3/NPu80+ployRmm6H1NinlftCl/YfN/RHdAtV+8PYZuiiXbXt0maAl0HUr8soKBv5Ct9jnnfe0p9iRfrtHebe6+NiV59YKcbVzfxz1uyTOJqhDakcUdGkb+vT4Bm9cqWyhG456zfCCNNA14OXnu/eum35Vq4lp2QGORKf8aZtS7gtdBXMgSi0X2A5ypvIduvToWrQLtZigJdCNjjzUofFsGeb7aXyZfYVuwa5g83m4gaX6/cuaIZzv/OgnkompJhoP2yiYP7Zxk3+RboQLVVr1cpyFI5UWOynAhneSObgGujrCVfBELEVNt59X8xLovvKyt+llyx7dlks9uq5CV0cfbVvC4sfMpag3egzdnUUOnHDNb1m95w9UDrpJHdfGJ5t320D3ziu3eDNpiIiV3tzIkXtFQdfCezkpdIl09fxdi2jZDDxA3eybOYbp0bWA7gkmaAl0rdN+ny3hO/qWgsLqWgmpis0qPO9au5BANwzdqebNtsPsX/ds0hAOVCffPCzQDWboUjv2McqNOUd3HlW+QNdu0T+rfuawLweWj9DVblQKhAW2C+1KK1gT6OYa6TY22Rpk+DLMPjxbFytIm9pulaFLCpta7o7rprycMBRnji6Ts1yZo+sDdNv1tlIGqyfyZRbo+tmjK9AN13SvbaxSB9WCjUGGT726YfDSEpT1lKEk0DVj9oqErqkZI+DycYauge4j6oLPqkd3srHHpR5dH6Ab+DI/X8L3M3YaVKAr0PUeunF6dXe/d41XKeYweLUJRslCKjP1x3b3E1rZQhfhFLdFKe0rcOP26I5PNZ507cBxHbo62m37Mhc+7J4oW6Ar0K0VdLHLs+3V9ckgo1tYBUwHDbS3hS7tRYzz+9EDH+2537znD3Vk3b1pGSK9S9vQ1z5wk9WmpQjhU3ffrRV0VUTN7f7+zt/XwPV1nF+4R5fPYCR0JxofF+jGh27Q1vFECd/Pw3HaWwS6Al3voUsqDts8m7ruFy4f86ZXt998XYYUJIWudp0KXKvibpvRft3bDLRngAG+ytbQVcDl9v9w3z3tkX4eAzf+HN3pOwS6yaCLohhlcQlTiB4R6Ga4l488J0Iqh6EbKJi32UCXYfbeQjfo3wW+3ROGbKDL0Ho9GzeYnzs3OhxrGxtIBtTbbGN8ATRp8dHzdQPwRkGX2+HDzL/5DtzwHF0b6DI5S6CbDLrB4XhfCd/NY7Zwkz5daRmqBHTHpqbvtYEuw+x9hm4HvAqCx3d/0w66b5/U9WD+3kS5pIv/83uvxNpEq3E2UNVzb7GMPHeZBrH2VN63fyB0+XduZ6DNZJ4qQNeyR/ckk7MEusmh67ovs8fQfVrMMQS6pxXMk41bo6C7Ohhm72VNt0cPL+YZwHAQdFE864lE6u9MXdhGCZ2FkIpotdNXS4o4MLMggsV9qhd0AS5/T2TsYy9uP+Wy6dG1gO4Rl4bX+whdfUAOj95Uki/zLRWGbq1tIAW63dCdalxna5Dh0zD7KPDit8zQg27oMvCe3l7+1MCN0Xo0CLrdFpB9d+ChzH8jpPrSZZd1wMsGvETDJpo1NpCd21YEuN09uhbp5VmXhtf7Ct2gBrmzhO9lZIQmAw9se6BXbBDougzd9jD7gb26HHhbr77WO4OMgeA993ztWnXq6I8683Sp1/J3mGroGbm9gPv2ydZ/vLBb/4ztZiABaV/bDUA1eAPrxg54gxot6mZSx0CX23cGGXhofhEFXes5upONPS4Nr/cVuvqQ1L7MKxdK8GV+oJrQLXa0H585ga7D0A16dedthtm/fMkqL3t1B/XwEtEirtL13pDSuV+Ey+zdzvi+d54TrV5Wt0O9TAQ6aKNWNqplIEt6Waeae4CX2xsAE/nSiuRzL25Uj+4VQeuaT8PrfYZuCYCz8mX2F7rFfgZcG2Iv0O1awVzd2Sjo8qevBhlR7UR6tJ+FmxVDFKgHa1GVioyZZgSwEWYtPPtM3x0lnAKqDKI3MAWgRLPaHIMWoBB4NVyNQEr96eMAgzjQtZ6jO9F4+CwHl6/Qbfsyrzzo0sg0X6F7YHjlloJfx6cFug5DV7cNTTZmogwyOPgYZu+7grmvqjkCuNR5ST3r2m9QE7adZBQtpNqnwap7awPwEtXu+tP7OuYY3RGvAVMV2oKy6NFlYpZANzvoagFQOb7MLRyyqgTd4nugVx5MM7dYoFsEdC17dbeNjbd+eFH1oNsd+eIs1S2awnHKpIvjANd64AER7WtzHfAaQZQZUB8GL+1EVY1ue/XoWs3RnWzcKtDNFrqBL/PuMobd9+o19RW6ALDgVqxFomuBrsPQXT85fb9N2xAGGVWGLhHvwfVjS9qJWKSITZ8uwO3+98ymDIXBq6JZUskIpBBKmWjY2DvWAbpmju5amx5dx4bXVwG6bVHVJZOl+DIvH7mrKtBFEV7wTN1IUZpAt/RIt3GbDXSrYJBhs6nbEtkyj5e2IkCMaKoXkDMf7dcFXoRVDC3g32gPqkuUi3KZmrXlHN2jLvboVgG6JfSZ9vVl9hW6JQnTdu9dtepsga6r0J1oNm0NMqrSMhQV8ZqoFrEUKWWAe+I73ypkni4Tggx4jZ0jEa+xhqw6cBPM0Z13sUe3KtAFfnPLR4+U4Mv82apAl/el+JnFbvTrCnQT9uqaYfZVMciwhu95F7T2r/qFZMBNM8ReRbyYXpBKNnaQdYBtd48uI/2ioDs22XwRFb5ANx/oltFrasAXrk36DN127/Po8YKV4J8Q6DoK3Suu+pUhm15doo4qGWTEEVcx9ACAFgVdIt0XZ3bVJp3cr0d33KZHd7Kx4yxHV1WgW4IYyIyq22V8mX2GbiBKmyv29Vt50AUfZoFuj0VqzqZXF4OMF1atrl6vrs1M3nPP13XeIqBrVMqM9qtLOrl7Yyhi5uiOe9qjWyXoBtC7oZwWopUf9B26pdXGc/w8CHRTrMAgY49Nr65pGzos4M0FugCXCLcD3ApMCorbJmRMMbAetajntpiUJdDN/5ANfJmfLuH7N0ekWPDhnT10y+l7fr5sQZVAt7+C+cmow82k+e68cot2p0LJXKtUcwBeBtrnAV2Ai0NVtwFGXdLJ7L9YvaajWLYBrt5TjdsEusVENgdWrLiMGbglpJk/UvC838yh237tSvC0Hh69qczvALVlgW4vMdVE42GbA46DECUzApePbdyk/ZhrBd/AmzkOeIGuEUf12wa4ejRfjYCLYIro9pHRS3RPLtkURHtX2MDW9OhOTF8j0C0unVhS5DJPfddn6BJxYvzhitlIcd8BRHjaUnQ25z3nV6Q72bx73P6g68AXcdWnxzfwJE6Rdj5QN/AacRV/du9QpGtagXptDC86wEWlXIOUsoEtCmVcp7iIiwnbTo/uhsnr1wl0i4Nue9h9Cb7MBSun82i5KS3VOjzyobK+AwAfL28+N3lthH6Bx/Upj9LLzZvH4x94Og24Omgn+sLlYzrirYOBhvZrprZ90w16FOCgveumX9WTgAbtugDXwJYeXHyVEeddGieV3KNHF/W9QLdY4cz+oZHbBboJUszFgmGJkhnwnVXhFXhcL3oU6TY2JTz0dHTCwWmG3X/jfWu10KryKmdqvMEAhEEbJS6Wjrrfts+ui5cy0P3jtet0hiQlbM2e2zg9/Q6BbrHQDVKluwW6iVqHykgxYzbyiEDXIegGvbqpDsArAucq6nJhsVXtWoy69ldXjLY+j61hDVt/+omk7CYHRddzxycaH3dxjm7VoRuK2hYFut6oeRf7TXAS6JYAXdqG1k9O30HkkBV8ayu2Euh2YEt0i8lFQpHUIBeqnWNTzatcPwiqDN0gzfxZgW4iBXhZFyuzVU0zewddszZeM71MHWoPqn0k7cEYFlsxoQg3q9qIrWoM3QxFUj0tH9EfuBzd1gm62pd5aPSwQDdmG005/c6m/eop4/Il0HUAup0Womsbq8ampj+jDrrFtAdlt9gK6NZBbFU36OYgklpSuyUT43L9to7Q1QBZPnKXQDdmhmB49KYyfz96ngW6jkF3icBqovFMBoemPoDX1k1sVRPodouk1mYH2yPUbcnA+HgQ1AG6ZYqDfIVuu+2qeC/rJVOISjbNEOhGwbc9/m9PXmKrKtd7qwzdHEVSJ8Ynph91dU6uQLf79yzJl9lT6LZfs1ImN4X3sf0XXzIp0HUUukZsFQy8n82q3hsWW1HvrSJ8qwhdA1tEUr++aYu+iFqbUd02yKxsqsJBUBfoBhB5SqBrvxA04bRV8u8578rcXYHugMVUIkzmo8YBJnG2qqLYqkrQLUIk5epsXIGu1aF3TKAbK0PwSQd+18PhucUCXQehaxa9veqgfAgrvqzEVkyWqZrYqgrQDYuk7hjb0BFJZRLZeiqSEuj2EAhVZ6JMIdDV6u/lo0cc+H3f8r2HtxbQNQvv2/HJ6ce1WUHKem8vZyvfxwj6Dt2cnKRaQVvag76KpAS6fQVCcwLdWBcq9znyOx9zYf6uQDfGYtoLpgVZiK0u7RJbkXL2VensK3RN3ZbZtrHH7dVAJCXQ7QOR4dFbBLpxa7sODZAYHv1EmVOJBLqJxFbNm3V9LkNnq4/+0vu9FVv5Bt2wk5SIpAS6cVcw7H6nQNd+lTTgflAf77M4Zwl0PYCuWdTnsrKV9N3ZyhfohmfbZi2S0u1mE83mWTVbdYSujnYVsMoY2O4rdINe5+cdew3m+Tz54l5Ve+h24JuDraQRW/kyRtB16IpISqCbT61y5BGBbpwLlUsmHR0g8bQPUa9At7vee9pWciELZyufxgi6Cl0DW2b4YtuYtUhKwfZ+2svOqvGqM3Sdq1U6Dl3HL1SO0d6E2tph6A57NcS+OPhu3aAO5B1Z1XupNSK2em7Npc6OEXQRutRtga4RSV2anZPUYl1EUgJdi1qlv77MpUDXA/X3YdrCXIIvw0+CMZNFDpHY7t1hlLWtpMtiK5eg208kNS4iKYFufrXKlwS6cT4z2lLzlOOvzzxReZluVlygBEr5nSWk5bd7eSBt3rz5J9dPNm7N0lYyLLYi8j0g0D1DJMVsW5Omz1Ik5cu4PYFu0aIqXas8JdCtZD18cW75yHOor6mpqouss/MGLSYewetTZkZgu9cHE3W/8cnm3erwPpSHs1XZ5hplQrdbJGUUyRnVbWfx4q6rSEqgGyPNrA4pga79Onjhmnc5qGaONtcYGt2tXckUGElBp4UwrwMiLgXZ2+eGR59wKPW+vRIHVJa2kmGx1VcuW1eqs1UZ0O2IpNR/G5FUhuYW83hv110kJdCNFaGs1laDAl3rBWwcsYhMttvPfTew1CBWn01S59RfeW3P3JdM6jnDy0fuCiLZp4Pxhy4qurdX6qAK2UouZjVG8Pc2X9UZI1i02Kpo6IZFUkT8GYqkFtZPNB7m4khwKtCNnzJ1xu7QC+jq16w97P6Ut+Dtvfl9jgcwDW+ffoftlTywxqaaVwXinMzFVkXO8C0Kuv1m22ZUt92B8lwwKtBNmTJ9SaBb6YuVuuztlT20EOdkZSvZz9kqb/jmDV2jSDYiqStyEEkJPgW6GUZuAt2YZ+D+oZHPCugEuoWuPGwlSb1uGxvPfYxgXtDtJ5LKCLZaJIXCXNAp0M0SIAX3U3oPXVbQevW0wE6gWzx8r5lehtNRWlvJK3qIrV7PSWyVNXTDsEUkZWwbRSQl0PVhNFvbl9n5YfdOQTeUnn9egCfQLWXheITzUVpbybCzVV5iqyyha2bbhkVSGcFWi6TESUqgW8zrMvJJgW781bbWFPAKdEuFb7a2knk4W2UBXVO37RZJZQDbkyKSEuiWAw+nfZmdhK6AV6DrDnynGtcpeMxkVe8lZZuVs1Ua6HY7SdH+lGHddobXTdAo0C0lzYzhgUBXwCvQ9XetuvHGswNbyb1ZOlshtiLiTTrDNwl0DWwfVT+bw2zbvbxOvF7yqRHolrVwK9LmCQLdNODdKQAU6Ja+sraVTCu2igtdEUkJdOsAXVYwHWZRoJv4wuWnpZ2ohD08+oScbr3ge/X1F2ZhK2mUzkZsFXeMoC10jUjqj9euy3q2rThJCXSdXY76MnsBXdZzmzf/hLZZFBgWaHE5cpecbgNW1raSRmz1wqrVVmKrKOj2c5IaFycpgW4NoKuHj7vnMewNdLtq5G8JFHPdb/n4HSttrZ+YvkZFvjvzEFsNgm8/6J7hJJXlbFsZtyfQ9QoYzlkdegfdULp+VuCYy57l9ZVTLebK0layW2w112eMYDd0RSQl0BXonlmbdMyX2UvosgKB1XaBZLY1XF5XOdFSrJCt5GwWYwRXDxBbGejm7CR1CPGYiKQEuv6+ViM3ODRRx1voLkk3+zwa0J108ofkJMsSvtdML1PAehBlbxbwNWMEEVuRcga+QNeM2zMiqQxn2x4VkZRAtwrQRRDkkL+w99DV4GVO7dDoswLPRHtnFT4Dzi6gNTY1/ZmsbCXDzlZAF9vGjEVSi4jDEInJuyfQrQJ0WXpwuxu+zMercuDqfmgVranfaV5AarXnUSfzuskJVsDKylYyPEaQtLMRSYmTlEBXoDt4zQ2PfkKgm/3SKvF2rXdRwNpzn6LnWb1Oq+XkKmGh/M3KVnKtiKQEugJd6xUIgeYEunmlnC+ZVJHccwLZ03vf0OguXhc5sUpezJLNylZSRFICXYFujGh3+coPCnTzTTnvHx69yWEbzqL287wOkkp2bGVpKxlXJIWjloikBLp1g66uQ5YbjR2vg4hGu1nVEL46sm3D9qfllHJ4abFVBraSdltEUgLd+kKXVbIv8/E6KVfbFzkrtioYPTU3tHKhorA9Rr8taWQuNuR08mhpW8mp5jYFxxM5AFdEUgJdgW6wSjTzP17XdhEU5IGX80sVge1L/D4ikKrAUoDcND7ReCYL2GqHrKnmzSKSqtYqvDZZsUb+QHFbSqtL3Xs0tUuYin7Vhc8jDgjbYls26uetnr+kkCu2MrCV1CIpHLLk1aze4up639DoR+j7y3vzOEQpVXsNSQcW9Rqa15GLF7H9O70OXrjmXTiGBQB+ycG2o+OIotRz/CSg5fnKu1bxFbKVnIsjkmL8oLx6smTJ8ikC1iYm7SzOdg3htt1kURaei0H243nKD/uHR2/h+UhEW9OF0lnB9/4BtpLaSWr9tY1V8mrJkiWrAhA+m4yO7v8dHvkQ0WZbkKUj4vnAYWwxBpRPBbfn5w4DVwRQOopV94/AjrKDTFCTtWQB1fGJ6Ue7lM4zjBeUV0eWLFl1iIgVHM8BkNTH2+rolb+pI2T28MjvtFP6wf+rTRsP8Ob2/Bw/Lz20smItLbZSke34VOM2zDbkFZElS5Ys/9f/B3c//viDLqOiAAAAAElFTkSuQmCCMB1mUaCb+MLlp6WdqIQ9PPqEnG694Hv19RdmYStplM5GbBV3jKAtdI1I6o/Xrst6tq04SQl0nV2O+jJ7AV3Wc5s3/4S2WRQYFmhxOXKXnG4DVta2kkZs9cKq1VZiqyjo9nOSGhcnKYFuDaCrh4+75zHsDXS7auRvCRRz3W/5+B0rba2fmL5GRb478xBbDYJvP+ie4SSV5WxbGbcn0PUKGM5ZHXoH3VC6flbgmMue5fWVUy3mytJWsltsNddnjGA3dEUkJdAV6J5Zm3TMl9lL6LICgdV2gWS2NVxeVznRUqyQreRsFmMEVw8QWxno5uwkdQjxmIikBLr+vlYjNzg0Ucdb6C5JN/s8GtCddPKH5CTLEr7XTC9TwHoQZW8W8DVjBBFbkXIGvkDXjNszIqkMZ9seFZGUQLcK0EUQ5JC/sPfQ1eBlTu3Q6LMCz0R7ZxU+A84uoDU2Nf2ZrGwlw85WQBfbxoxFUouIwxCJybsn0K0CdFl6cLsbvszHq3Lg6n5oFa2p32leQGq151En87rJCVbAyspWMjxGkLSzEUmJk5RAV6A7eM0Nj35CoJv90irxdq13UcDac5+i51m9Tqvl5CphofzNylZyrYikBLoCXesVCIHmBLp5pZwvmVSR3HMC2dN739DoLl4XObFKXsySzcpWUkRSAl2Bboxod/nKDwp080057x8evclhG86i9vO8DpJKdmxlaSsZVySFo5aIpAS6dYOurkOWG40dr4OIRrtZ1RC+OrJtw/an5ZRyeGmxVQa2knZbRFIC3fpCl1WyL/PxOilX2xc5K7YqGD01N7RyoaKwPUa/LWlkLjbkdPJoaVvJqeY2BccTOQBXRFICXYFusEo08z9e13YRFOSBl/NLFYHtS/w+IpCqwFKA3DQ+0XgmC9hqh6yp5s0ikqrWKrw2WbFG/kBxW0qrS917NLVLmIp+1YXPIw4I22JbNurnrZ6/pJArtjKwldQiKRyy5NWs3uLqet/Q6Efo+8t78zhEKVV7DUkHFvUamteRixex/Tu9Dl645l04hgUAfsnBtqPjiKLUc/wkoOX5yrtW8RWylZyLI5Ji/KC8erJkyfIpAtYmJu0sznYN4bbdZFEWnotB9uN5yg/7h0dv4flIRFvThdJZwQ==;" vertex="1" parent="1">
          <mxGeometry x="120" y="250.39" width="20" height="9.22" as="geometry" />
        </mxCell>
        <mxCell id="Ns4UkMlDHWn5gxUy7XMD-32" value="&lt;font style=&quot;font-size: 9px;&quot;&gt;4200:4200&lt;/font&gt;" style="rounded=1;whiteSpace=wrap;html=1;glass=1;" vertex="1" parent="1">
          <mxGeometry x="180" y="240" width="60" height="20" as="geometry" />
        </mxCell>
        <mxCell id="Ns4UkMlDHWn5gxUy7XMD-33" value="Backend" style="text;html=1;align=center;verticalAlign=middle;whiteSpace=wrap;rounded=0;fontStyle=1;fillColor=light-dark(#ffffff, #1a1a1a);fontColor=#333333;strokeColor=#666666;" vertex="1" parent="1">
          <mxGeometry x="400" y="310" width="65" height="20" as="geometry" />
        </mxCell>
        <mxCell id="Ns4UkMlDHWn5gxUy7XMD-34" value="Database" style="text;html=1;align=center;verticalAlign=middle;whiteSpace=wrap;rounded=0;fontStyle=1;fillColor=light-dark(#ffffff, #1a1a1a);fontColor=#333333;strokeColor=#666666;" vertex="1" parent="1">
          <mxGeometry x="600" y="310" width="65" height="20" as="geometry" />
        </mxCell>
        <mxCell id="Ns4UkMlDHWn5gxUy7XMD-35" value="&lt;font style=&quot;font-size: 9px;&quot;&gt;3000:3000&lt;/font&gt;" style="rounded=1;whiteSpace=wrap;html=1;glass=1;" vertex="1" parent="1">
          <mxGeometry x="380" y="240" width="60" height="20" as="geometry" />
        </mxCell>
        <mxCell id="Ns4UkMlDHWn5gxUy7XMD-36" value="&lt;font style=&quot;font-size: 9px;&quot;&gt;27017:27017&lt;/font&gt;" style="rounded=1;whiteSpace=wrap;html=1;glass=1;" vertex="1" parent="1">
          <mxGeometry x="580" y="240" width="60" height="20" as="geometry" />
        </mxCell>
        <mxCell id="Ns4UkMlDHWn5gxUy7XMD-39" value="&lt;font style=&quot;font-size: 6px;&quot;&gt;mongodb/mongodb-community-server&lt;/font&gt;" style="text;whiteSpace=wrap;html=1;horizontal=1;verticalAlign=bottom;" vertex="1" parent="1">
          <mxGeometry x="490" y="290" width="120" height="30" as="geometry" />
        </mxCell>
        <mxCell id="Ns4UkMlDHWn5gxUy7XMD-40" value="&lt;font style=&quot;font-size: 6px;&quot;&gt;flawas/weblab-backend&lt;/font&gt;" style="text;whiteSpace=wrap;html=1;horizontal=1;verticalAlign=bottom;" vertex="1" parent="1">
          <mxGeometry x="290" y="290" width="120" height="30" as="geometry" />
        </mxCell>
        <mxCell id="Ns4UkMlDHWn5gxUy7XMD-41" value="&lt;font style=&quot;font-size: 6px;&quot;&gt;flawas/weblab-frontend&lt;/font&gt;" style="text;whiteSpace=wrap;html=1;horizontal=1;verticalAlign=bottom;" vertex="1" parent="1">
          <mxGeometry x="90" y="290" width="120" height="30" as="geometry" />
        </mxCell>
      </root>
    </mxGraphModel>
  </diagram>
  <diagram id="a9kxllbqaA4SGhtdVSUh" name="Kontextdiagramm">
    <mxGraphModel dx="681" dy="445" grid="1" gridSize="10" guides="1" tooltips="1" connect="1" arrows="1" fold="1" page="1" pageScale="1" pageWidth="827" pageHeight="1169" math="0" shadow="0">
      <root>
        <mxCell id="0" />
        <mxCell id="1" parent="0" />
        <mxCell id="b5JcsTCX66UuJe_3lNbl-19" value="&#xa;&lt;p class=&quot;p1&quot;&gt;ðŸ…’&lt;/p&gt;&#xa;&#xa;" style="text;whiteSpace=wrap;html=1;" vertex="1" parent="1">
          <mxGeometry x="289" y="205" width="50" height="110" as="geometry" />
        </mxCell>
        <mxCell id="b5JcsTCX66UuJe_3lNbl-21" value="&#xa;&lt;p class=&quot;p1&quot;&gt;ðŸ…¤&lt;/p&gt;&#xa;&#xa;" style="text;whiteSpace=wrap;html=1;" vertex="1" parent="1">
          <mxGeometry x="352" y="205" width="50" height="110" as="geometry" />
        </mxCell>
        <mxCell id="b5JcsTCX66UuJe_3lNbl-22" value="&#xa;&lt;p class=&quot;p1&quot;&gt;ðŸ…¡&lt;/p&gt;&#xa;&#xa;" style="text;whiteSpace=wrap;html=1;" vertex="1" parent="1">
          <mxGeometry x="240" y="205" width="50" height="110" as="geometry" />
        </mxCell>
        <mxCell id="b5JcsTCX66UuJe_3lNbl-23" value="&#xa;&lt;p class=&quot;p1&quot;&gt;ðŸ…“&lt;/p&gt;&#xa;&#xa;" style="text;whiteSpace=wrap;html=1;" vertex="1" parent="1">
          <mxGeometry x="409" y="205" width="50" height="110" as="geometry" />
        </mxCell>
        <mxCell id="b5JcsTCX66UuJe_3lNbl-4" style="edgeStyle=orthogonalEdgeStyle;rounded=0;orthogonalLoop=1;jettySize=auto;html=1;fillColor=#e3c800;strokeColor=#B09500;strokeWidth=2;" edge="1" parent="1" source="b5JcsTCX66UuJe_3lNbl-1" target="b5JcsTCX66UuJe_3lNbl-3">
          <mxGeometry relative="1" as="geometry" />
        </mxCell>
        <mxCell id="b5JcsTCX66UuJe_3lNbl-28" style="edgeStyle=orthogonalEdgeStyle;rounded=0;orthogonalLoop=1;jettySize=auto;html=1;fillColor=#e3c800;strokeColor=#B09500;strokeWidth=2;" edge="1" parent="1" source="b5JcsTCX66UuJe_3lNbl-1" target="b5JcsTCX66UuJe_3lNbl-8">
          <mxGeometry relative="1" as="geometry" />
        </mxCell>
        <mxCell id="b5JcsTCX66UuJe_3lNbl-1" value="Benutzer" style="shape=umlActor;verticalLabelPosition=bottom;verticalAlign=top;html=1;outlineConnect=0;fillColor=#e3c800;strokeColor=#B09500;fontColor=#000000;" vertex="1" parent="1">
          <mxGeometry x="160" y="80" width="30" height="60" as="geometry" />
        </mxCell>
        <mxCell id="b5JcsTCX66UuJe_3lNbl-6" style="edgeStyle=orthogonalEdgeStyle;rounded=0;orthogonalLoop=1;jettySize=auto;html=1;fillColor=#008a00;strokeColor=#005700;strokeWidth=2;" edge="1" parent="1" source="b5JcsTCX66UuJe_3lNbl-2" target="b5JcsTCX66UuJe_3lNbl-3">
          <mxGeometry relative="1" as="geometry">
            <Array as="points">
              <mxPoint x="490" y="270" />
            </Array>
          </mxGeometry>
        </mxCell>
        <mxCell id="b5JcsTCX66UuJe_3lNbl-14" style="edgeStyle=orthogonalEdgeStyle;rounded=0;orthogonalLoop=1;jettySize=auto;html=1;fillColor=#008a00;strokeColor=#005700;strokeWidth=2;" edge="1" parent="1" source="b5JcsTCX66UuJe_3lNbl-2" target="b5JcsTCX66UuJe_3lNbl-12">
          <mxGeometry relative="1" as="geometry">
            <Array as="points">
              <mxPoint x="490" y="270" />
              <mxPoint x="490" y="300" />
            </Array>
          </mxGeometry>
        </mxCell>
        <mxCell id="b5JcsTCX66UuJe_3lNbl-15" style="edgeStyle=orthogonalEdgeStyle;rounded=0;orthogonalLoop=1;jettySize=auto;html=1;fillColor=#008a00;strokeColor=#005700;strokeWidth=2;" edge="1" parent="1" source="b5JcsTCX66UuJe_3lNbl-2" target="b5JcsTCX66UuJe_3lNbl-8">
          <mxGeometry relative="1" as="geometry">
            <Array as="points">
              <mxPoint x="665" y="270" />
            </Array>
          </mxGeometry>
        </mxCell>
        <mxCell id="b5JcsTCX66UuJe_3lNbl-2" value="Administrator" style="shape=umlActor;verticalLabelPosition=bottom;verticalAlign=top;html=1;outlineConnect=0;fillColor=#008a00;strokeColor=#005700;fontColor=#ffffff;" vertex="1" parent="1">
          <mxGeometry x="160" y="240" width="30" height="60" as="geometry" />
        </mxCell>
        <mxCell id="b5JcsTCX66UuJe_3lNbl-3" value="Technologie" style="sketch=0;outlineConnect=0;fontColor=#232F3E;gradientColor=none;fillColor=light-dark(#5094d3, #d86d0c);strokeColor=none;dashed=0;verticalLabelPosition=bottom;verticalAlign=top;align=center;html=1;fontSize=12;fontStyle=0;aspect=fixed;pointerEvents=1;shape=mxgraph.aws4.t4g_instance;" vertex="1" parent="1">
          <mxGeometry x="470" y="150" width="50" height="50" as="geometry" />
        </mxCell>
        <mxCell id="b5JcsTCX66UuJe_3lNbl-8" value="Ring" style="sketch=0;pointerEvents=1;shadow=0;dashed=0;html=1;strokeColor=none;fillColor=light-dark(#5194d3, #a75f20);labelPosition=left;verticalLabelPosition=middle;verticalAlign=middle;align=right;outlineConnect=0;shape=mxgraph.veeam2.running_playing;" vertex="1" parent="1">
          <mxGeometry x="640" y="150" width="50" height="51" as="geometry" />
        </mxCell>
        <mxCell id="b5JcsTCX66UuJe_3lNbl-12" value="Kategorie" style="points=[];aspect=fixed;html=1;align=center;shadow=0;dashed=0;fillColor=light-dark(#5194d3, #e9690e);strokeColor=none;shape=mxgraph.alibaba_cloud.nlp-tc_text_categorization;labelPosition=center;verticalLabelPosition=bottom;verticalAlign=top;" vertex="1" parent="1">
          <mxGeometry x="640" y="280" width="47.400000000000006" height="47.400000000000006" as="geometry" />
        </mxCell>
        <mxCell id="b5JcsTCX66UuJe_3lNbl-18" value="Lesen / Erstellen / Bearbeiten / LÃ¶schen" style="text;html=1;align=left;verticalAlign=middle;whiteSpace=wrap;rounded=0;" vertex="1" parent="1">
          <mxGeometry x="240" y="245" width="280" height="30" as="geometry" />
        </mxCell>
        <mxCell id="b5JcsTCX66UuJe_3lNbl-26" value="&#xa;&lt;p class=&quot;p1&quot;&gt;ðŸ…¡&lt;/p&gt;&#xa;&#xa;" style="text;whiteSpace=wrap;html=1;" vertex="1" parent="1">
          <mxGeometry x="240" y="47" width="50" height="110" as="geometry" />
        </mxCell>
        <mxCell id="b5JcsTCX66UuJe_3lNbl-27" value="Lesen" style="text;html=1;align=left;verticalAlign=middle;whiteSpace=wrap;rounded=0;" vertex="1" parent="1">
          <mxGeometry x="240" y="87" width="50" height="30" as="geometry" />
        </mxCell>
        <mxCell id="b5JcsTCX66UuJe_3lNbl-29" style="edgeStyle=orthogonalEdgeStyle;rounded=0;orthogonalLoop=1;jettySize=auto;html=1;fillColor=#e3c800;strokeColor=#B09500;strokeWidth=2;" edge="1" parent="1" source="b5JcsTCX66UuJe_3lNbl-1">
          <mxGeometry relative="1" as="geometry">
            <mxPoint x="688" y="300" as="targetPoint" />
            <Array as="points">
              <mxPoint x="720" y="110" />
              <mxPoint x="720" y="300" />
            </Array>
          </mxGeometry>
        </mxCell>
      </root>
    </mxGraphModel>
  </diagram>
  <diagram id="teIkzRWrVN2udMtdNMyK" name="Bausteinsicht">
    <mxGraphModel dx="909" dy="593" grid="1" gridSize="10" guides="1" tooltips="1" connect="1" arrows="1" fold="1" page="1" pageScale="1" pageWidth="827" pageHeight="1169" math="0" shadow="0">
      <root>
        <mxCell id="0" />
        <mxCell id="1" parent="0" />
        <mxCell id="-CAyEEBA3umkIzGsVxpX-29" value="" style="rounded=1;whiteSpace=wrap;html=1;glass=0;shadow=1;fillColor=#ffe6cc;strokeColor=#d79b00;textShadow=0;" parent="1" vertex="1">
          <mxGeometry x="120" y="320" width="560" height="280" as="geometry" />
        </mxCell>
        <mxCell id="-CAyEEBA3umkIzGsVxpX-115" value="" style="endArrow=none;html=1;rounded=0;exitX=0.25;exitY=0;exitDx=0;exitDy=0;entryX=0.25;entryY=1;entryDx=0;entryDy=0;" parent="1" source="-CAyEEBA3umkIzGsVxpX-87" target="-CAyEEBA3umkIzGsVxpX-46" edge="1">
          <mxGeometry width="50" height="50" relative="1" as="geometry">
            <mxPoint x="150" y="660" as="sourcePoint" />
            <mxPoint x="200" y="610" as="targetPoint" />
          </mxGeometry>
        </mxCell>
        <mxCell id="-CAyEEBA3umkIzGsVxpX-116" value="" style="endArrow=none;html=1;rounded=0;exitX=0.75;exitY=0;exitDx=0;exitDy=0;entryX=0.25;entryY=1;entryDx=0;entryDy=0;" parent="1" source="-CAyEEBA3umkIzGsVxpX-87" target="-CAyEEBA3umkIzGsVxpX-46" edge="1">
          <mxGeometry width="50" height="50" relative="1" as="geometry">
            <mxPoint x="320" y="650" as="sourcePoint" />
            <mxPoint x="370" y="600" as="targetPoint" />
          </mxGeometry>
        </mxCell>
        <mxCell id="-CAyEEBA3umkIzGsVxpX-1" value="" style="rounded=1;whiteSpace=wrap;html=1;fillColor=#f5f5f5;fontColor=#333333;strokeColor=#666666;shadow=1;" parent="1" vertex="1">
          <mxGeometry x="80" y="40" width="640" height="200" as="geometry" />
        </mxCell>
        <mxCell id="-CAyEEBA3umkIzGsVxpX-2" value="" style="rounded=1;whiteSpace=wrap;html=1;glass=0;shadow=1;fillColor=#dae8fc;strokeColor=#6c8ebf;gradientColor=none;textShadow=0;" parent="1" vertex="1">
          <mxGeometry x="520" y="120" width="160" height="80" as="geometry" />
        </mxCell>
        <mxCell id="-CAyEEBA3umkIzGsVxpX-3" value="" style="dashed=0;outlineConnect=0;html=1;align=center;labelPosition=center;verticalLabelPosition=bottom;verticalAlign=top;shape=mxgraph.webicons.mongodb;gradientColor=#DFDEDE;shadow=1;aspect=fixed;" parent="1" vertex="1">
          <mxGeometry x="530" y="125" width="20" height="20" as="geometry" />
        </mxCell>
        <mxCell id="-CAyEEBA3umkIzGsVxpX-4" value="" style="image;sketch=0;aspect=fixed;html=1;points=[];align=center;fontSize=12;image=img/lib/mscae/Docker.svg;" parent="1" vertex="1">
          <mxGeometry x="120" y="50" width="50" height="41" as="geometry" />
        </mxCell>
        <mxCell id="-CAyEEBA3umkIzGsVxpX-5" style="edgeStyle=orthogonalEdgeStyle;rounded=0;orthogonalLoop=1;jettySize=auto;html=1;exitX=1;exitY=0.5;exitDx=0;exitDy=0;strokeColor=#666666;strokeWidth=2;align=center;verticalAlign=middle;fontFamily=Helvetica;fontSize=11;fontColor=default;labelBackgroundColor=default;endArrow=classicThin;endFill=1;fillColor=#f5f5f5;" parent="1" source="-CAyEEBA3umkIzGsVxpX-6" target="-CAyEEBA3umkIzGsVxpX-2" edge="1">
          <mxGeometry relative="1" as="geometry" />
        </mxCell>
        <mxCell id="-CAyEEBA3umkIzGsVxpX-6" value="" style="rounded=1;whiteSpace=wrap;html=1;glass=0;shadow=1;fillColor=#ffe6cc;strokeColor=#d79b00;textShadow=0;" parent="1" vertex="1">
          <mxGeometry x="320" y="120" width="160" height="80" as="geometry" />
        </mxCell>
        <mxCell id="-CAyEEBA3umkIzGsVxpX-7" style="edgeStyle=orthogonalEdgeStyle;rounded=0;orthogonalLoop=1;jettySize=auto;html=1;strokeWidth=2;endArrow=classicThin;endFill=1;fillColor=#f5f5f5;strokeColor=#666666;" parent="1" source="-CAyEEBA3umkIzGsVxpX-8" target="-CAyEEBA3umkIzGsVxpX-6" edge="1">
          <mxGeometry relative="1" as="geometry" />
        </mxCell>
        <mxCell id="-CAyEEBA3umkIzGsVxpX-8" value="" style="rounded=1;whiteSpace=wrap;html=1;glass=0;shadow=1;fillColor=#dae8fc;strokeColor=#6c8ebf;gradientColor=none;textShadow=0;" parent="1" vertex="1">
          <mxGeometry x="120" y="120" width="160" height="80" as="geometry" />
        </mxCell>
        <mxCell id="-CAyEEBA3umkIzGsVxpX-9" value="Frontend" style="text;html=1;align=center;verticalAlign=middle;whiteSpace=wrap;rounded=0;fontStyle=1;fillColor=light-dark(#ffffff, #1a1a1a);fontColor=#333333;strokeColor=#666666;shadow=1;" parent="1" vertex="1">
          <mxGeometry x="240" y="190" width="65" height="20" as="geometry" />
        </mxCell>
        <mxCell id="-CAyEEBA3umkIzGsVxpX-10" value="Lokale Dockerumgebung" style="text;html=1;align=center;verticalAlign=middle;whiteSpace=wrap;rounded=0;fontStyle=1" parent="1" vertex="1">
          <mxGeometry x="560" y="50" width="160" height="30" as="geometry" />
        </mxCell>
        <mxCell id="-CAyEEBA3umkIzGsVxpX-11" value="" style="shape=image;verticalLabelPosition=bottom;labelBackgroundColor=default;verticalAlign=top;aspect=fixed;imageAspect=0;image=https://cdn.iconscout.com/icon/free/png-256/free-npm-3628956-3030181.png;" parent="1" vertex="1">
          <mxGeometry x="130" y="125" width="20" height="20" as="geometry" />
        </mxCell>
        <mxCell id="-CAyEEBA3umkIzGsVxpX-12" value="" style="shape=image;verticalLabelPosition=bottom;labelBackgroundColor=default;verticalAlign=top;aspect=fixed;imageAspect=0;image=https://cdn.iconscout.com/icon/free/png-256/free-npm-3628956-3030181.png;" parent="1" vertex="1">
          <mxGeometry x="330" y="122.5" width="20" height="20" as="geometry" />
        </mxCell>
        <mxCell id="-CAyEEBA3umkIzGsVxpX-13" value="" style="shape=image;verticalLabelPosition=bottom;labelBackgroundColor=default;verticalAlign=top;aspect=fixed;imageAspect=0;image=https://nestjs.bootcss.com/img/nest-big-logo.png;" parent="1" vertex="1">
          <mxGeometry x="360" y="126.30000000000001" width="20" height="12.41" as="geometry" />
        </mxCell>
        <mxCell id="-CAyEEBA3umkIzGsVxpX-14" value="" style="shape=image;verticalLabelPosition=bottom;labelBackgroundColor=default;verticalAlign=top;aspect=fixed;imageAspect=0;image=https://logospng.org/download/typescript/typescript-4096.png;" parent="1" vertex="1">
          <mxGeometry x="330" y="142.5" width="20" height="20" as="geometry" />
        </mxCell>
        <mxCell id="-CAyEEBA3umkIzGsVxpX-15" value="" style="shape=image;verticalLabelPosition=bottom;labelBackgroundColor=default;verticalAlign=top;aspect=fixed;imageAspect=0;image=https://logospng.org/download/typescript/typescript-4096.png;" parent="1" vertex="1">
          <mxGeometry x="130" y="142.5" width="20" height="20" as="geometry" />
        </mxCell>
        <mxCell id="-CAyEEBA3umkIzGsVxpX-16" value="" style="shape=image;verticalLabelPosition=bottom;labelBackgroundColor=default;verticalAlign=top;aspect=fixed;imageAspect=0;image=https://brandslogos.com/wp-content/uploads/images/large/angular-icon-logo.png;" parent="1" vertex="1">
          <mxGeometry x="130" y="165.64999999999998" width="20" height="21.11" as="geometry" />
        </mxCell>
        <mxCell id="-CAyEEBA3umkIzGsVxpX-18" value="&lt;font style=&quot;font-size: 5px;&quot;&gt;bcrypt&lt;/font&gt;" style="text;html=1;align=center;verticalAlign=middle;whiteSpace=wrap;rounded=0;fontStyle=1" parent="1" vertex="1">
          <mxGeometry x="360" y="145.64999999999998" width="20" height="13.7" as="geometry" />
        </mxCell>
        <mxCell id="-CAyEEBA3umkIzGsVxpX-19" value="" style="shape=image;verticalLabelPosition=bottom;labelBackgroundColor=default;verticalAlign=top;aspect=fixed;imageAspect=0;image=data:image/png,iVBORw0KGgoAAAANSUhEUgAAAd0AAADcCAYAAAA1Fnt/AABIcklEQVR42u2dD4xc1X3v0VOF2qemSl4DFIcC3vWuqR0TY9i1X10H+wG7C8I701JKaSNRFLVQVSlVITRCNKhUDTRNFZQ+UNKSJycmNIQURwkkqlOMVq4cQUSAxo90E7y2a2pWwekjdtd1tzbzzufMPeO745m55/4/597fkY4M9uzM7Pw5n/v7/b6/7++ss2TJkiVLlixZsuq47rvvvv+2/trGqvHJ5t1jk82d6yen719/7dYNmzdv/kl5deqzVt1449mXb9367iL2xunpd/C5K/L34/Nc1O9XxncnyfsX9z3g9uNTjds4J8YnG3sG7Jmxqel7eYwyP9PqeWwan5x+POK57hmfam7jDHT5M5Vmy+nmyNp4zfSy9ZONW8cnGs+oD94RtVuhvcAXRwH4jiQfRln+rfYB1dhb0Oaw26E+ex/nM8hnLG8I81lWjzlb0O83w0EOeNZPNa4r4uDjQjnue3D51ddfGOszooDbdU5E7ZmyDv3xiWZTPf7RGM91ljMx3nemeXeB35lEW10gvSinW4mLL4A6DG7mQFBvyLzlh3FBg1l94QTA1V3rJ6aviXmgZrn1RR6HWF6fMXX/D5b0u53U3zW+cwoERPl5/H5jU82r4r7mV1z1K0NxImkO8Ni/v7qwKiOgUI99KO5z5cIs1ms+2XyoxO+M7V6U063oD6D6kusDdWL6UfUGzKV8A48AYKKTOF9YWe6v4NA+6cAhcWT9ROPhrOFL2cSRQ3Avh3vW8A0yFYtxXuc432FSqUlARrRZ9MV64gusmBcIJV7IxXr95XQrYOmrUnWIBldie3N6M9XVe+NJABw3LSNLoGtzWHAIZpWedAi6euuocap5s2fQTXbRrqL8oj7H/E49ymUCXVnZL2piGyavX0cdKUgDFXmAttNn6hARAAt0s4YTz61q0D190E8/msWFhdPQnWycoOZcTJmk8XDy90KgK8vmQ3ZtY1UgEpmJKRzIax/SasCCBCSyqg1dU3+MW2/zBrrBhUVaKDkOXfaOvD/DBB2pzkCBrqyBKRSUhG3l8VGH3/BZruQBcF4CElm1gG5qUY7L0DXZojQRvQfQbXEO5PkZDtqDWgJdgW4mSyvyUB63P1hHPHizzwAwNWYOFgGwQDfFfjBJe5EH0NUgTApeH6BLNg69ST7Ajf37C3RlnblIz3J1mJHy2BkJuxZ3qQ84XxQx4RDoxk7HTk3fW1Ho6og3SarZE+i2shSPmaVNO9pZv5ZAV6AbP6JVUWAByuMl+wq11002W2uv/WX9Z8Efij3Bgbgpr6tgWdWCrn6eMQ9vj6Cr24riGzX4AV3q11lnunRgksVnV6BbnwVsuLrlYChKeWxAu1qBFthuvfra1i3/a6K1eeL61qXB3xUM4EVjH4cgomibQIGuV9ANIkL7/k/PoNuijBTnO+BNpKuj3cZtWZ6dgcNZS6Ar0I0+CALP4+BDs1DEm2BAC1gB7J1Xbml96bLLWv88eknrqytGW4+oP/9o3Vjrhs1Xt/7n1HQHwFcU3aMpNpQCXQtFrC2Y/INuvFSsV9CdbMxm1dnQ1rmUI9TzBLriSMUHHZgEpuFHi0ofA09gC0h/b/NVrW1j462XL1nVOnzxitYPLxpu/cvyEQ3dx95zcevL77mo9aULLj4DwGtLAnAwiOGOIjx6BboxnIZoVWvbisbYWnX/8aDFbaEoMMWFrjGviLuD12Rb4PNcGJw8g26LYCOLUlymJbj8obsnyWcq7a5nnbajPG7sKEp5HAYt/0/q+KENv9ja/d41rddDoJ0bGu1soPv5n1/e+sKFQ3oDXgD8t+rvHImAjxgf6Lhm7bIyh+58mmilPd1q64ZAJLiQpkZoI8aLHelONZ5M83p2fM5Tpz7t4OQfdBuH0hrpBP4ELX+gO/24nDQ5Lv2lY9JF+1A5VDRor7i22brx6qnWxzZuaj235tLWAQXV+YuHNXDDoB0E3fAGwGz++1MqQr5jbIMG8HjwmCUAuGNDKQAuB7pZuY8FwsEX84x2E6SXMzFzAFYBHI7mGe16CF3d/pXqfM36+eQN3ZQXcrL6pDsYLhBYkc0WBaBuQdRHf+n9rW+8by0gPUVESwr5QB/Q2kLXbKLecARsAMzj8lyMAKtgAB/S/ctiQ+kldE9fpCZs+1A/F1V2KAu6ncdvT3Gaz+uiwlPoHkk6OAXBZdnmKwLdklYnTabegFRX6ykEURPXXLdEEEVEC2i708dZQLcfgMMRMAAm0i4pAj5kxqiJDaU/0A1FLzOJbCIjBHdlQzcE3iQR746KQpee688kKtflkT0U6Lq92j6fxSuP+wmiSBsD27igTQPdvgBW0fVfrF7Tun3DxrIBPKfHxKnDTgDsPnRZwZSYzGehugDdFHXII1ElFF+hy0UIZ2ks2LWFeC2Bbg0iWheUxwiiPj2+ofXCqtWZgDYr6NoAmIjcALgEE45ZACw2lG5DVx9mKJwzjgZdgW4wDH5nfCA0mxWFbiwYtdssczp7BbqO1GnVwYJYpyzlcbcgCsBSp33dsk5bBnT7Afhzy1f0BHDREbAuAwQ2lOKC5R50E7aCDBQcuQLddqTWbGYtOvIauu3nvcnugky3Y7UEuhVbHeVx+w2eLwq0gwRRpk47lzFo84ZuLwCzAfCfrXlf67c2vl8DeG1Qny5YhHWiPa91+l7q8nUGsEvQTQjJo4Pqui5BN9FFRcSB7Tl0rcRwwei+BYFuVSLaQHlMYb/I4QImqg0Lor5y2bolgqgDOYK2SOh2A5jo10TABsC4ZIUBXGD6+QT1eWNDWTcAuwbdACJxns9Jvr8+QFc/n5jD1qP6kb2Hrk0KXUHLpdGRAt2Eddrgw/pgUcMFugVRQCYsiAK0WdZpXYVuvwj4UfUcHAHwDEK5uthQugbdQMkcL8s0oLXGOei2S1axVPmD0ueVgK666O13YRF8PhcFup6Ctkt5vFh0ndY4ROUliPINur0iYAPgP167rvXrm7acAeACU9DahhJxT5UB7Bp0g0M+lpvTIAWzc9BtT8ZpZfV6VwS6LS5GegZHWYzuE0eqYhcHZiDXnylSeWzqtEYQhRVjWBBVNmhdg24cAIsNZXWhG0yPmakqdIPXOxZ0axDptscadnUXJBSeuei9PKd1QllsbQaU3bSm7FJU6mAMKY8LA+3aIKLtIYgqvE7rM3S7bSjDgxgMgJcMYri20BR0pWwoXYx045rNSKRbCegueR/1fPGiTIf8mzK0ww3QdozG1ZVACcrj1QMcolwErS/QHQRgBwYxzAdXoN7aUDpa0z1S3ZpubJOMOd8i3TYsdRkvbgmv0/6VoPbdMmNBYz+ud9AtMV2tlcdcObaHC8yVKYj6wuVjnZF5LtRpqwjdXinoXpOQ1ooNpbfQTRAJLvI7+ALdBP2mewYp6h2NdPfoemwi1XHz7hSj+zYF7UUC3czTT+3pJA8VqTyOcohyrU5bdehGDWIoGcDahhIAu+6C5Rx0Y7bUABFf+nSTTcgZfMC6GumeFq7G7q89kmgs4kTjmcRqZ4Fuf+UxvZRBnn+x6DpttyDKZmSeQLe8FHT3JKQSfaBnuUB01YbSJegGUDqUVoDjKnSTpEw583yErnlPElxEJW3129R+PD1cQqCbRnkc1AZmHBFEnTKgPeA5aKsK3V4APmMSUjmzgBd1ZiawoXQFwC5BNwEgIw8gV6CbNGU6KHXuA3SDQRb52uhONbedzpQIdGMv/SZhfN7uz1oouk47yCHK1/RxXaHbbxThkklIJc0C5mAKgFCqD7Qr0A3GZMb+vvfq73QRukE5rJWliMoH6Ca/mEpmAyrQtb0KZE4iyuN24X2+SNCurpAgSqAbMwIeMAmp4Ah4j/GBjvKhrSJ0g2hoNo9h6C5AN5ietJgmgvMZurnNwe0BTIFuVP1motkMPI8PuSKIqgto6wzdOJOQCgbwgml74Oq9CACXDd1AbLM3r8OnbOgmamExUfxU47oqQLf9PHWZMPOOge5eeYFuj7oGX/KguD5bJGh7CaJ2v3fNkpF5dQKtQHfwIAYAbCYhlTQLWAOYKCnP9HNZ0NXOU+0IMGlmazGq3lkmdHX03m5lzNyP2EfopmgDGthedKb6XaDbXdd4sQzQ9nOIqpogSqCbTwTcbxBDQRHwoTz7fpNAN83zCc2pnkmZVnzG5mIkPnST18tCbTIPpi2TRdWqfYNu0KN8c5ZdAb0+h/WAbowLwyIdolwYmSfQrU4EHDUJKUcAz+SZZk4A3aPtQ4d0od0OWv0eCsSR8xnVwa2GnyeIdPfG+d30RCoeQ0W1QVCRRZfFHtvshk/QTeKrPWByz229+7ydhO6cLqOS+Ui7tQNeDO/lvGq34TpttyCqzJF5At3qAthEwN2DGHJIQRdhwH+y5Cv3eFHgROPhfNuQSt0nbC8ofINuYvOKGKl3N6Fbom1jlunlsBVjtyDqcE0FUQJd90YRZtBa9JBAd2kkGie97R104wPAK+gGs8x3pHiNTg4aeu8kdMucp5t2NuIgQZRxiBLQCnTLqgEbAOMDnd0owjPFIjWG7kKcKNA36DK/Oa5pim/QDfVkn0j6Gg0qtwh0zyykb0sa1RrQIoj62MZN2ooRYBjlsdRpBbouR8CJfaAHXNXXDLqLg6YJ+Q5dDaoEqnAfodsOwBIpuyNr+QLdFF+AbkEUyuO6OEQJdKtlwtFrFCHwtZ2cItAdPDO3AtCdHTS0oYrQbVv8xh7hGGkWItDt7cxilUbuJYgS5bFAtwqDGAAwJhwWNd8jSQ/jCkF3wbZ9xkfoajvQFO+xr9BtR7vNZtC7ezRizyNGsqnlC3R7v8hWddttY+M6dSx1WoFu1fZXzr9AK58tot3ZvGfzOg7dWRtXJm+hqw7jtO+vz9A1phlcdPTb9D3zfG3b5gS6CQvopJVRIgNdgWKB0FWv98BtwBF1O5v7qHnUy8SjKOhyeOU9DMFZ6KqDKg4cPIPuEQRyWfRf+w7dzBkj0F26AmPzeRvoUsOtM3RfO++CVHufOthtb0vk9fl3nRu5H1O3237uMqvbDrqPukOXNDPp5UujIt1gMHedoKvbCqeaN2dlCOIodOeygpJAV6Br8wbO2kAXJ6m6+iEDzMM33dCav/3WxPtfrtzYeuPW37C67Tdu/22r/eWNv9j66q/dYH37XvtLl11We/AS6aJojoJuHBMIz6GrJy1Ru836sHY2vRzHVUigK9BNuoLG6EgbMA4jzC4AUN3qua+de74G7qmjP2olXf91eH/rh3/wu623F49b3X7/3Gut737/BwP3q4ffaO360/taf3/n7+v/jrp9r713/8HWP277Pxq6j73n4tq2FJFmp/UtMr08NX1vhaF7gsMZ8w+eQ15pdIdrunuy+J0Fuh5At0xHqvYTnn7cBrocSgpCp+oEXSLcg+vWthbnvtdKs/7toT/X22q9fbL12v/9buulV77beuWf9vbd//TP3299e+c3Wk+Oj7VenNml/3/Q7fvtvfv2a3CTaq4rdOnfpQ0uUr2cUTSUMXRPtE1u1PeY+dcxNv6zXEggqEQgU8TBnAC6h+L+XsEc8COxLzospiQJdP2HrlaoM66zwL3k7LB5whxGtAzRKlQb6KroB+j++9efSgXck28ebr0+dVXrP7/3SqbQZROtfqW5VaeJgWcS6P7Tq9/Tf3I/29/9c7VMLdMyRK8uZi9p56mWAN35sg7UQqCbMBWoLyZyGFIv0K1CpFvODn8J7rCBLocSrlN1qeuSVv7RAx9tpV1EuP/6y9fb/0AM6ALamU/9Zevx4aHWd/b8Y+Jo97vf36ejZeq7CLPqBl1m9QLcCGeqBaJBJ6Gb4RB7ByPdRAMmApFo3AlDR9P2YQt0Bbr9Plunn7Blry6HEg5Uh2sA3dd+9jxdx7WtwfZb1IFJT//4sb/JBbpEqcAW6P7DfffoGm0S6BqAd+q7NRJWAV2sIS2gO593j65AN9upTklsbtPW7QW6At1I6Nr26lLXxY2q6m1D+5Zd0Dq4fix1HZcFbOdGh7WQKg/oGlg+88Hfan3xvavb0W6QLk4EXgXtb95zd63qu7QL2fTo4tRTxMEl0M0Qum0AxjXyT2WAItAV6EZCN06vLhOEcKSqeh134dlnUgP37YUfa3jTJgRIc4Pua3M6Qv3cz/yPdrSbsLZrImd2neq7tj26TFPJ2xhDoJstdOnO4H2L7yud3OZSoCvQjYQuV3U2b6IxyKhyepm0chZ1XBPl/uC//0zr2Jcfi0nreNAFki+/+G1dj2Xz30lru0acVaf6LuplenQjI92J6UeLOKQEutlBN0gx35zggJxJeoEl0BXoRkKXDxc9ajbpZQYeVFVIBXCJStPWcU2UixnG/lW/oNXLeUI33Paz7afe0XruLx5IFe2a+/vW49s1lKpc3w336Ea1CwELga5/0AU2gYl/piPrBLoC3cTQbV8N6r62SOgypL6KLUNYL5IKjlV7HbCIbolyMcSIT+wE0H1trvWtJ7+oU8L07epoN0Vt19R3Md+ocn3X9OjSDhfVLlREj65AN3votg/l5t2xD8mEmQ2BrkDXCrrY20X90NrAIIP5uZUCb4Z1XM1MFSnTIvTaO89J1uObALqv7H219fIrL7f+bsuVp6PdFErmcH0Xm8mqghfofuqSVTY9uieL6NEV6OYD3UC3Etcs48jlV19/oUBXoJsLdG0ayY1BxgurVlcqxUxa2dotymIBWoBL5Bw7tZwUukG0i/IYQRWezEAYGKcBL/VdFNFEz1Ws79IuxEg/V3p0Bbr5QDc44z4T/6Bs3i3QFejmlF6OFhuYQwmDjKqIqQAuAwayqOOGo1xSy2/e++GEd5IMugDy+a/t0DVK0syYZgDiNNDt1Hef/KLuBa5afRflMj26Fu1C81mMtYtxSMX6MieJyMpasQ/IjCY7Ba2RcT2t5+K2DwUXTbHsJxNAdz7mY+wtDbpTjesSTLZ6KNZrrm7vAXRP9ro6i4QudV0MMqrQNmTquImi0T6LFDV9vuzju79ZKHR1VKv2juumdLRLqploN21tt8r1XdOje6lFj24RxhghOMxYbwWlop5bNpFu49ZYv5+CdBaPG7QPPRTzsWfiCqrIiMR9/+JkKrTwta3BsX+Mqea20qAb9/OsNi6JMbMndyR4XwvdtK51vTCNVVFN5Aa6DLP3PtLF4EPtxGDsA0tcrEgto1xOPJUoKXSDqNTAkXSwjnZTKpkN0GlD+toHbqoUeEkv/9bG99tAdyarebI2cOBgjbPP8mjx+xGt2fxe5nZlvbZJHr+I9y/u/Zf5GUnyesT9rsX5TJW5l8rq1ZWWTZ2Aw+ljGzc5CV2iS/ySzcD4qOlBsawZY0S5pKyP/Mk9qeCdFLqkmJk8RCoYOBLthocapBFVEe0asdagNDMjAgE+KW62qyMDEVGxb9h8dXR6ucz5m7JkyareIvVAsd12mL2L0AV0bGqq+B0DVg3hMIgDpbLxQz7xnW+124TiOEYNinIVcLn/VBF0CugSkZrJQ0AXOOJWZR3tBhEtAxCoB/Nz/D9iKurFu//6Ya1mNvN39Vb/bQDLBvgIr7gdDllExy7Wgg10Gem3NtqN6iE5JWTJkpWtwEHP5IyGLsPsaRk64NhEIOP8hJgJkP7HC7s1WN+85w81EAEt0NUQVnAkDawBvH5M/zvCJ+4DEOs6bwwQ81j6vhXcGeOHOUYp0A3qr6SVDQSp8epIt1vJDGDV32vAqp8BsmaAAsIp7oORgfw87lQAFpBTLzbpawCLUhrAopwGysCZPmHg/+rhN7QvtIuWkuEeXQtjjDvkhJAlS1bG0J1+1KZtCIMM13p1AelAIwoFsiUgVoDtRMTLLtBqY7P1wAP19wbEb/31X+nIFRD3VDmr+8bJykTVqW0kU0KXyBQbRwYg6ChUwREYAlYNWBW9AkTu3wCWvt4lgFU/B1zp+WVraKqLim7Akso2gOV+ATf/rXt81fPg34h6XYx0qed2enQjFbTNppwQsmTJynTZ9M8BXdJxrg2zB5SxI0wFN0AKUE1EbEAMPHuBmH8HxNwegPPz1HJN2po/+fsyoWvAS1pXR7sKusC0F2ANmMOA5b/DKeJuwHLfOjIO4N2vXtxpYXJYuWzm6EZJ/VFgygkhS5asjKGrpfyRbUNEBhhkOOVKhRp5dLj1n997JXWfbb/UtBZJvfOcpSBeP3Y6bX3eBRrKqXt+M4AuESegBLhGyNQLsKSJB6WINWBDtd04gix+BsC7Oq0oRo/ukaJ6dGXJklUn6Fo0MZth9t9431rnxFThum6mK0hNU+vtTk2HldI8fibOVllEusHkoXBq1zhKRaaIwxFsCkcrM+fX1RYj0suWc3RnfeqDlSVLli/QtRxmzyG1bWzcOYMMXdf98B2tIhbRLKll1NI8blaRdlbQNdEuaWStYg5UxkCW++2kiEM12NS9vN3QD9qLXLWPJNKlR9cCunt864WVJUuWByswBT9k06vLMPsfXjTsnMNUJundGGtx7nt6fB9qaNLQqVuPMoQuoinG8+m+2Xf/nAagEThlCdiofmFXrSOJdJmjG2mMkZENoSxZsmQtWYGn595xy2H2rkGXNC8ABIRFLlTT1HhTGWLkAN2wipk6bhaTh+Kklk1N2fU5ulGRLhO45HSQJUtW5isYZj9jA12G2TtnkIGCeNkFycbppVion4l0sX5M1Z+bdXpZARbQAlzagFAvFxHlmtT239/5+87Wc+P06CaZNCNLlixZVmt8cvpxm/QyBhmA7oCDU4NS98mmmJ+byUzeLKAbGF/QFoRKGQBmMXEozuPz2K5GuqSWHxm9xGaObgtVv5wMsmQVs/auWnX2D1asOEft4QMrVly2/+IVG9hzy1dsDe/9F18yaf6N23F7fu65zZt/wjPoRo/dutThYfbUdTOrrcZYqKZJMTMm0AXo6nruk1/s1FNpAaLOWgRwl5hzOOq7DHTp0SXKjTLGKGp4vVmYt3PwFL2reIBzAMtr6N7iMw4ggeW+oZEb5paP3LV/aOSR/UOjz6pz/CW15+aWjx5Rfx5T+1TEuX8quN28/rn2z+/k/uaGRz4EoNVjrT544Zp3uQndqcZttsPsMch43cEUM6082k+5wMVEIXp2UTCnriln1KdLdEuUS3tQUcA19Vz8no0/s6vQNT26EdA9ygSuIr+DXMGrz/JudRA9V9hWj6cOqdurdrjrQ7eo11Id9BzugtTe69Do6Ht0hDo0ep96rZ5WezaAZRFseCuA8dP7hkY/wncM6LsB3Ylm0wa6pOUYZv+6i9OG1IGaSZo35iKtTbSLbWSpNpChHl1qqrEGHmRYz3XVFCPmHN1DcWadZgLd4dFbSvnuqMiCFF2VDnod7RT4GpLqFLyezjK008IjdynQPRVEoq5wYlHtw/p5qQszIu7SXqigV3fBxiCDYfYuThvKzKQi5qJHN5EdZdYDDwLlMAIqjDCyGmQfp5bMlCPXoWs5R3dv0cO/9w2t/M0Svz/bq3Tw7xsa+WSBr93xukOXFLuuw7aj2efnhlYueDJjnYh7N1Ewz7/QunDQqztvo2DGIMO1tiFT12UAQdF1XR6Pmi6CqrJH+5FSJrXMQPsio1wf6rlmW83RnWg8U9Twekegu3hgeOUWga5AN3bqWNdPdZp90RPQ9n0fKRXMLV/5wUJS0FzV2wyzXx0YZLjmSmXSy9RX9Xi+ghdpbVLMeDaXOcQeqGBMAQCLahNaYsjhqCGGaRf63PIVWgwY2S40Mf1o8aAoFbrs3VURBQl089YfrNgQpPDnPQdtn73y4Nzw6CdyrdXH6dXFIMPFmq4Bb+ppP0l4ufBj3a+LSUdi6KeALlEtg+OJcvE9BoKFtQkFvcF4OrucWg736Ea3C03fX0PotlTU8jsCXYFuv1ot2ZCgTnusmrDtKcTantv7a9uri0GGay1D4bpuakFTwsXjEu0mHr6QFLp7X9X1W+q4QI+WoaKha1LbLkM3zhzdMnp0nYCuusInZSjQFegujWy1sn5nTUDbW4A1PPpE5iWYscnmQzbQZZi9y9DNpGc2waJdidahxP3CCaGLapjULopljCnSTglKUs91eWh9GLp/tuZ9bUFg1Bzdgnt03YHuaAtgCXQFuizERcDGome2PvBVkW9maWds72zahlw1yDDpZdK89M+WsZh2BPgTTR1KCF2iTFLKpJZnPvWXhQqoTD3XDK13WUQVY47u0Q2T16+rK3RRnpbaSiHQdUIgFbyGxwS0vdPO+4dGH0gtuBqfat5sa5DBMHsn67qoqtVmBm4Zi8dFxZzIkjIBdI1qGPEUPstmAH3R9Vy8nl31W07Qozt/+dXXX1hf6Oq9s2j1tkDXkVRyu198TsBqtWfV63VTiki3sclmmD01MYbZuyqmym2ofQw/ZlTUsXt2E0DXAI8oFyFT0VEuaewlQ+vVBY/L6WVXe3QdhG4r1WEi0PVuYZASiKQEpgn63BNpIbC9szHI4NDCIMPFtqHOUPs/+N1C5+v28mOOPfUoLnRDww2opdIyVJjPsnpcYEs9mUjb9XouymW2TY/u2GSzlCjPNehin+esb61AN4/o9rDAM9Wew0861guP7V1Ur66B7qfHNzjpShXeRJwoioues6v9mNetjW/UERO6ppZKhPm1D9xUCHB5DECLWhrxFhEuaW3XDTHMHN2Ja66LrulONbeVAwrnoNvCYUigW13oUpMkShNgZitEtL5YZZi9usp/0UbB/LGNm5yHLrVVIk56Z1E0E3kWJbCipos1ZCzgx4QukSZex9g+ap/lnEb4USMmjc2fRNOksf9uy5Ua9qS1XY5wE83RnWh8XKC7xJd5tUC3etDV/sjtYQACyxyMZqy/N9jf2Rhk3HnlFqehi4qZ1h097/bc8zV8+RNl85E/uUcbaOSZfga2QDdWz3AM6JrhBtgu0p+rfybDNqFw+vg7e/5Rq6LxVUawBWgBPSllImz+znXoxuvRnb5DoOu3L7NA1+qz9pbAMU+jmdF/ZbpS5JsxNjX9GRvoMsyelqEDrka5P3ueBh5gxaKRSJeIF/iygbJJP+v2nhz8mnlMIG8N9xjQBYYMNwCACKmyElDp9LG6L9LHRM+kjwE7kDVRLfAFwtyeyBfoup5eNnN0LUb6tZi4JdBdOrcUcwSBbjWgS6uL9N0W99ngex0F3XttDTJc7dU10P1/n/rfZ0wDYgoRICTqJf3Mn+H0c5a+zQw/4P6thyDYQhcB1T9/XztAATwi0TRtQp30sYpuqRGTPiZ6BrDAlg14v3H7b2u3q04UrH6G2/sAXdOja6FcPsnELYHuGft5n3yZBbpnLvX+/fT+oZHPCgiLNdOIvGDF/s6mVxdBCsPsfYJuWOiEwpj0Mz29RL3AkXQwQH7z3g+3089pxvQF7UPcH0rqLKFraqtAERAmqeUacBLZoj4Op4+xctx+7jJ9/6SQiaQBO4+j7SWDNLYRcvkS6Vr26B4peni9J9DFl/lDAl0/oRsIpp4WCBaeYv5EdNvQxPQ1tr26u9+7xt1e3QHQDRtZYNs4FxpTqAGsfpY/mY9LZJwm/Uz6msewiqAtoWuGGyBkAnpxfJY76eMXv70kfcx9AdswPPk7ot5XD7/RM5L2Dbr06Fq4Uc1evnXruwW6vWtUvvgyC3TPAO5ugWDxLURWjlXY30X16ppo12mDjITQDTtbMZ+X+yH9TPsP0XHc9DO35+d//NjfZAJdLaB65WUdgWqfZWAYIaDqTh+jeDbpYw3aPupjoLvzzv6GG75B12qO7mRjT1lOTM5DV7cQjTwi0PUHuhq47Vm3AsHizWVusXqTsL9TB8+hKOhyeH3h8jFnFcw20CWF3Be6PQBM+hmnKWbmUqe1TT/jx0zUHBktW0A3PNwAIVU/IHabV5AiBtIAUke15y6LBFWVoEuPLp7hFtDdUbKi1PU5ows+1C8FugLckvvbn2UUotUbhf2dba8uw+x/eNFw9aHb1YoUN/1sIupIP2hL6BpDCiJePVGoC4QmfQyUaenplz6uC3Tj9OgyaUugG+3LbH2gCHQlpVy/fSzW54HUGjZ4tsPs6wbdQelnUsj90s+0JyHQSgNd0sQImoBc2GfZ1GlJM4fTx0Szg9LHdYHukh7diOH1TNoS6Nq47kS0QQh0S1Upi4ey4+Kp7oUNng10GWZfi/SyLYDPPV+nn0knd6efaUfi3wY6YkVAF/iRJgYkpIwROBn1sUkfG1japI/rBF16dIlyI3t0p5o3C3TtpqukHmsm0M18ETRRdxf4lfe9SDb4YHL6fpv0MgYZPJCLbUOFQrc7/UwPsIJwOP0MbPn/gdOPBkE3GG6A/SLpZVLLJn0crtNmCb+qQDc8RzfSjWpi+hqBrnXd6gGBrlvQxStbwOdhBmh8qnGbjZDK5WH2ZUHXRL6knI33M3+H+QbQ1UMQEkCXiNYMiiei1enjd/+cdoni7/IAX5Wga9mje7SsHl0foUvtylVf5jpClwk3mDEI/ErbTyfWOmCDZzvMHoMMF9uGyox0mTCEaIoaL/+tna/U5t+Acd8hCAOga4YbGOMKXKKo1RLpYpRB3y7/JtDtDV3LObpzZfXoegpdZ32Z6wZdLn48H82nLhZWHsT5jM8U79++odGPzC1f+UFab3B1OjC8cgtexnoMIX+vovrgdk8FgxvK/P2PpfoMYIMX1asLdBGmPLfmUifrutbQvShb6JJaDg85QFhFihn4mtRz3yEIfaCLgAo1Mr25plaLBSStQ1pEtf+gTjeTes4SvJVpGVLvr+Uc3RfLGF7vOXRPWZm6C3RzFU55qFTG+3kWwO4fGrmd149aaFKrUV4DdeExDJg1rHHfYuCAL6WWoFd3PsqVCiWoq8Ps45hjAMJMHvO8C7RKuVf/LtGtnnikIl7SzD17fPtAF+jhHmWiXDPgwCiWw7ch+s0CgCaaJoL2Gbq0C31u+QpdCrEY6fdMWcYYHkNXD7vn0BPo1uJ3TS004vkSueb9mQHiKiq+Sc8LzhfAs9bzc/st5upih2czzH7b2LiTbUM20AVyTCDCg9mIn1KllpddoO9vkEmGSTP3HILQB7pEs6SRTfsPoDvDb1nB19yOCDUppLh/ft54LhNh93O88gW6pkc3ql2ICVvlgsJb6Lbmlo/cJdAtQTil4OVBHZfn9zQATA2nNABWEXWQvnavfY6rfXUIzdi0DblqkGEF3dBgAlTFRKB68IGCYpK0ctRgA/5dw109N2b62kCX1DItQRhcaNtGFYEy6aeX3zLQ7Yzai9mba2CL6QbRLbAlwu023/ANunHm6DJhS6Cb3JeZ9J5At9A67jlBitbZsXbqc/EEKV+Xepgph2DwkpVRTGbZsfHJ6cdtDTJ8remewbyFH2vxkxn9ZwtfI57qK5DqAV3qvFbQVdDDEIPIMwq64WEIVrVddbEELLkt4ESopacJ4dNsMSrQB+giovqzNe/TUW708PrGrQLdavgy1wG6TvfjKti6bhdKlmDf0OiuFL/nWwdWrLgssyc0PtH4uE2vLgYZvrYMDRpSYMRPJh0c9Vh9xVHd0MVCctkF2iwjjpCKNiHtMBUBXT0QQUWpxpEKsPaMbBUkTRqa8YBEyKSs48zl9QW6f7RuzMZz+eT6qcZ1At0SFZwCXeullbxuppVfonXpLE8Wwq254ZHfYSJQIc5TgyPd5t22w+wPeOpIFbX+6/B+nQbWPbfq/nqpnI0JRuTwAwVUenT1/aif037NMWq6GGIYIRWmGIPG+RHtcpt+rlTGg5n6r6kP8xhxZ/L6Al3bHl0mbAl009a3Rne5MOy+ytB1U628coEWnrJqthnVfB8JVNXlOLJhh2c7zB6DjAMVhK5ZABIRlFY6d4mtosRT4dS1rhmryBk7yJ4ezQPUy2Z+LsDc9af39VUUh0VVtBWFRVUmPc2weqJlYHuGIKti0DVzdC2gO7/xmullAt0sRFUrPyjQzTWtfLtr0a1LdduUn5sbgn7h4r3Hg17dRRuDjBdWrXYuxZwldMN9vSidTbqZ+ixOUzYD7oEssAW6uq1o8Xgs6OrIlUhXbWqv1F0HDrpXMA0DEeBSF+Z+9Ni/FLD1Bbool9mWc3T3ltmjWynoZtFCIdAdJJ6ac+i93p7Ia9jhFRiNDBJa7cwlm4MdHik3G4MMF4fZ5wFd1sKzu9qzdQPxVM80cY+FyMpYQ/ZVOfdNL+/TkSn1WSJX0sIDI90QeDG3MNOGqN2aYfZpgesLdPmTbIyFMcbOMnt0Kwbd0n2Zqwpdh7yVT2FCUfZ3Js9ab5/P0LFMxVPhRaoNW7yoXl0OM9pMXDPIyAu6//701zsj/d74wC2xomQ9jaifcjlCSGXahjCsQFRl0siDofiDNqwDdynqwnGEUr5Dl9Sy7Rzd8YnpR8tPbVUHupkrOwW6uu6oHmvehfqtCyWEYj5H2t3qVCEXkxhkRA2zNwYZnx7fINCN+rmvP9Ux4OipXB4EXRTJr7ysFclAlz9RKEdFrALd0z26kdCdbDwo0M1cVPWUQDfTKPeB8uv1o0d8UidnsbjACMA7l/s4S2zxbBTMH9u4ybleXdegS0sRqWXEWH1T0v0GHhDRqo0ACugS8dJPGwXQukM3Xo/u9B0C3TzAW84BXTXoBlFu2QMN3qK39awaLtqKcNTK/YGwxbOB7p1XbqlNTTcpdGk9AroYb/RULltOGQK6AAXYRbX5CHTbc3QtlMstJmsJdPNRtpYhqqoadIM0Z6nuUoVAp+4LWzwbVyqG2Qt0By9UzszWRf3cV+08CLr7D+pWIeCJEpnhBlEKZIGudY/uImp9gW5uaeaPCHSTLy5aSrd7VJGeELGAZdOrawwyXBtm7xp0aRMCuvT7JhliD2DNFCGUyGbSkEA3kx7dI2UOr686dBH/FO3LXCXoBpNyaqtEr1mk27zK1iCDYfYC3d7r1NEftf2c33nOYLvIAdAFlmaYASnmb95zt0DXArqWPbqzZQ6vrwF08WX+rEA3YT2R2bDlvXdPP7d5808IDQtaQa/uQpSCGXXo7veucSrFbOuHXAR06dHVPs7nnj/YvWoQdIPBB7RnAV16bsuu6ZLy7kw1cgy6Zo4uF4QWyuU9LvQbVhm6+AQX6VpUFejSdlWix/Jc1YwvnF82vbrjQa8uBhkuKZgxryCli39y2dA1PbqYYww00xgAXdTLtA3Rowt0UTKX2adrgM99xh0jWPQcXQvo7nDh+1Zx6LJ3FxU1VQW6JbYJLTICTyhY8LLp1R0PDbN3rm1IwZG07onvfKtU6OqfUbfnuZBqTgTdIJ0L5IDu3225UkN4EHjzgi71ZaJuwB/2dnZ2jm7U8PrJ5kMC3WoJcqoA3WCwwUt1H9NYq6WH2Vv26jLM3sm5ugqQRJh9DSkKgC4zejvK5YhJRIOgSw2XWi7QJc2se3UHDpnPHrompYxBh6vANdClR5csjA89uiVBt4S05cqDuRsMVAS63GeMqTdZ7sOSVi5XwbzNdpj9Dy8adrNlgQEF6rkBvzKg+6MHPqqh++a9H04HXRVhznzqLztD5xExDYJoptBVETXA5f4w5+A5uApcA10zRzcKuqj0awjdU8Eos+JtBbOeQ1pR6PI6lZSN+JCQr0wx1eT0/TbQZZi9i5FuGLwImQCgzVSgLKHLgAOgGwl9i/Qy0KOGatOrmxl0AW4AfGDfb06vaz26t2/YaDW8HpV+HSNdWlFKMtA/lrcvs+/QLTG1/BKPLeQrNdJt3GaTXsYgg6tn10b8LdnBwAGMKgbWVrOErgIpaWXahY7v/mYq6Jq2ISJNIMqYvkFtQ1lAl/Q198M8X2CrRVPqdfQBuj716JYE3VvaxgvR80N9a0XxHbqBavl44bVccZ1yALoTzaYNdLdefa1zBhmD2omSKpvjQtf06AJ8WodSQZfBBy9+uzP4ABDmCV0ia6Jc2pNIJ7s6qL6fetmnHt1SarqBqKmsoeh5+jL7Dl1SvCVFuWcL9UpeGyavX2czV5fWDAwyXnc4xdwN3iTK5rjQBewIuRhgHxldR0DXgBTV8Lafekdkr24a6HYrlH0Drm2PLur8sofXlw1dDtq55SPPVWnYvf/QHX2i+AlC9RjX5/y6/OrrL1SH03wUdPnzuTWXOl3XzULZHBe69OVSSx7ouRwTusAW6H71125oQ7RP21BS6BI9+6BQtunRjRRRTTSecWUQd1nQ1enM4ZVbylAz5+XL7DN02/XcwlP+c0WoymVZrFU33ng2KbgoVyp6Ib9y2Trn5uraKptt3aviQhcHKivlsiV0ASKDD4AuvboAt1/bUGzoGoXy49u9UChH9eiaz+bASHdq+jOufNfKhK6OroZGt5cxnzUPX2afoRu0Ci0WnOr/pNDOpbruZGPGZpg9Bhmutg3ZKJsZv/f24vFMoWt6dI99+TErqO+fe02Dtd9+9fAbGqTUdJ8cHxs4VzcOdAE3949CmdtrhbIHgqlBPbo2c3SZpCXQbS/gV0oLkYK9QDcE3eJr7It5jyaUFVvBbNeri0GGd9BVz3ffsguslc1xoftvD/25Vi4T6QLgqE0Uu/POu/tuzDG09eJ7LtbtO6SB+9V1baHL33Fb7tsolPWfHtVxu5XLpkd3PNIYo3GrQDf8HEqZ27qY9XB0z6H7SNH2nCKgci/SfdDWIMOnmi6gRUz1xq2/oUGqI94IZXNc6AJxoMt9A/eo/RUFPAA5aJs+WdK/QLVfr64NdLkNdpJGoaxVyuo5UC8mknbRV9m2R9eiXejk+qnGdQLd7npiKf2hmR78vkKXNqqiRW30agvlHFvY5Nm0DWGQ4UPLUDit/PrUVa23F36s079mEpBRNjOoIC10uV8NXGrHFs/pqytGW5//+eWRYAGO1HTTpJdJJxuFMulqboO9JP2/gJj798EIo98cXYtI96grPbquQFfXdpev2FqS3+/tdYcuYqaCB9YXOv1Jlm2ka9mryzB73sgDHkLXjOAjMiXiJDrtpWxO6r1sUthZQBc4GuAmbRlCMIWNJAplRFnAlX/nPvk30w/sG3T/NnjtLHt0513p0XUJukGa+akyfJmz8vz1FbqBKcaxIl9zcaByMdK9dusGdUCdsBlmj0GGr9ANR6f01SKA4jZhZXMS6LK4D6LoqIg3Crph4A6ygOwHXf4urFAGuKSRiW75N6AcNuHwErrq4obPogV09zJJS6DrwuGfrYrWW+i2W7eKbNl6Sgjn4Lriql8Zwi7PxiDjhVWrvUkx94OuMbXAM1mnm1XUi7KZlp6FZ3clgm4YvIMi3kHQNcB9cWZXJHB7QZe6LepnPTRBwdT8nQY4zlZBv6/P0CW1bD1H16EeXdegq9PM5RjuZwIwX6GLNafUc2VZDbOnNYPZpa4Ns08K3U5k+/WnOlEvEDY12iTQNeAdlGruB90lEe4A68d+0KUGTKSLQtlEt2ZgQndN2HfoduboetSj6yJ0S6gvmr0zrS+zr9AtWj3umtcy7zuCOv6swuZ3SXRhHxhk7ImCLuk8DDKqBN1O1PvhO3SUSp2XwQ78dxLohiNewK3/NPu80+ployRmm6H1NinlftCl/YfN/RHdAtV+8PYZuiiXbXt0maAl0HUr8soKBv5Ct9jnnfe0p9iRfrtHebe6+NiV59YKcbVzfxz1uyTOJqhDakcUdGkb+vT4Bm9cqWyhG456zfCCNNA14OXnu/eum35Vq4lp2QGORKf8aZtS7gtdBXMgSi0X2A5ypvIduvToWrQLtZigJdCNjjzUofFsGeb7aXyZfYVuwa5g83m4gaX6/cuaIZzv/OgnkompJhoP2yiYP7Zxk3+RboQLVVr1cpyFI5UWOynAhneSObgGujrCVfBELEVNt59X8xLovvKyt+llyx7dlks9uq5CV0cfbVvC4sfMpag3egzdnUUOnHDNb1m95w9UDrpJHdfGJ5t320D3ziu3eDNpiIiV3tzIkXtFQdfCezkpdIl09fxdi2jZDDxA3eybOYbp0bWA7gkmaAl0rdN+ny3hO/qWgsLqWgmpis0qPO9au5BANwzdqebNtsPsX/ds0hAOVCffPCzQDWboUjv2McqNOUd3HlW+QNdu0T+rfuawLweWj9DVblQKhAW2C+1KK1gT6OYa6TY22Rpk+DLMPjxbFytIm9pulaFLCpta7o7rprycMBRnji6Ts1yZo+sDdNv1tlIGqyfyZRbo+tmjK9AN13SvbaxSB9WCjUGGT726YfDSEpT1lKEk0DVj9oqErqkZI+DycYauge4j6oLPqkd3srHHpR5dH6Ab+DI/X8L3M3YaVKAr0PUeunF6dXe/d41XKeYweLUJRslCKjP1x3b3E1rZQhfhFLdFKe0rcOP26I5PNZ507cBxHbo62m37Mhc+7J4oW6Ar0K0VdLHLs+3V9ckgo1tYBUwHDbS3hS7tRYzz+9EDH+2537znD3Vk3b1pGSK9S9vQ1z5wk9WmpQjhU3ffrRV0VUTN7f7+zt/XwPV1nF+4R5fPYCR0JxofF+jGh27Q1vFECd/Pw3HaWwS6Al3voUsqDts8m7ruFy4f86ZXt998XYYUJIWudp0KXKvibpvRft3bDLRngAG+ytbQVcDl9v9w3z3tkX4eAzf+HN3pOwS6yaCLohhlcQlTiB4R6Ga4l488J0Iqh6EbKJi32UCXYfbeQjfo3wW+3ROGbKDL0Ho9GzeYnzs3OhxrGxtIBtTbbGN8ATRp8dHzdQPwRkGX2+HDzL/5DtzwHF0b6DI5S6CbDLrB4XhfCd/NY7Zwkz5daRmqBHTHpqbvtYEuw+x9hm4HvAqCx3d/0w66b5/U9WD+3kS5pIv/83uvxNpEq3E2UNVzb7GMPHeZBrH2VN63fyB0+XduZ6DNZJ4qQNeyR/ckk7MEusmh67ovs8fQfVrMMQS6pxXMk41bo6C7Ohhm72VNt0cPL+YZwHAQdFE864lE6u9MXdhGCZ2FkIpotdNXS4o4MLMggsV9qhd0AS5/T2TsYy9uP+Wy6dG1gO4Rl4bX+whdfUAOj95Uki/zLRWGbq1tIAW63dCdalxna5Dh0zD7KPDit8zQg27oMvCe3l7+1MCN0Xo0CLrdFpB9d+ChzH8jpPrSZZd1wMsGvETDJpo1NpCd21YEuN09uhbp5VmXhtf7Ct2gBrmzhO9lZIQmAw9se6BXbBDougzd9jD7gb26HHhbr77WO4OMgeA993ztWnXq6I8683Sp1/J3mGroGbm9gPv2ydZ/vLBb/4ztZiABaV/bDUA1eAPrxg54gxot6mZSx0CX23cGGXhofhEFXes5upONPS4Nr/cVuvqQ1L7MKxdK8GV+oJrQLXa0H585ga7D0A16dedthtm/fMkqL3t1B/XwEtEirtL13pDSuV+Ey+zdzvi+d54TrV5Wt0O9TAQ6aKNWNqplIEt6Waeae4CX2xsAE/nSiuRzL25Uj+4VQeuaT8PrfYZuCYCz8mX2F7rFfgZcG2Iv0O1awVzd2Sjo8qevBhlR7UR6tJ+FmxVDFKgHa1GVioyZZgSwEWYtPPtM3x0lnAKqDKI3MAWgRLPaHIMWoBB4NVyNQEr96eMAgzjQtZ6jO9F4+CwHl6/Qbfsyrzzo0sg0X6F7YHjlloJfx6cFug5DV7cNTTZmogwyOPgYZu+7grmvqjkCuNR5ST3r2m9QE7adZBQtpNqnwap7awPwEtXu+tP7OuYY3RGvAVMV2oKy6NFlYpZANzvoagFQOb7MLRyyqgTd4nugVx5MM7dYoFsEdC17dbeNjbd+eFH1oNsd+eIs1S2awnHKpIvjANd64AER7WtzHfAaQZQZUB8GL+1EVY1ue/XoWs3RnWzcKtDNFrqBL/PuMobd9+o19RW6ALDgVqxFomuBrsPQXT85fb9N2xAGGVWGLhHvwfVjS9qJWKSITZ8uwO3+98ymDIXBq6JZUskIpBBKmWjY2DvWAbpmju5amx5dx4bXVwG6bVHVJZOl+DIvH7mrKtBFEV7wTN1IUZpAt/RIt3GbDXSrYJBhs6nbEtkyj5e2IkCMaKoXkDMf7dcFXoRVDC3g32gPqkuUi3KZmrXlHN2jLvboVgG6JfSZ9vVl9hW6JQnTdu9dtepsga6r0J1oNm0NMqrSMhQV8ZqoFrEUKWWAe+I73ypkni4Tggx4jZ0jEa+xhqw6cBPM0Z13sUe3KtAFfnPLR4+U4Mv82apAl/el+JnFbvTrCnQT9uqaYfZVMciwhu95F7T2r/qFZMBNM8ReRbyYXpBKNnaQdYBtd48uI/2ioDs22XwRFb5ANx/oltFrasAXrk36DN127/Po8YKV4J8Q6DoK3Suu+pUhm15doo4qGWTEEVcx9ACAFgVdIt0XZ3bVJp3cr0d33KZHd7Kx4yxHV1WgW4IYyIyq22V8mX2GbiBKmyv29Vt50AUfZoFuj0VqzqZXF4OMF1atrl6vrs1M3nPP13XeIqBrVMqM9qtLOrl7Yyhi5uiOe9qjWyXoBtC7oZwWopUf9B26pdXGc/w8CHRTrMAgY49Nr65pGzos4M0FugCXCLcD3ApMCorbJmRMMbAetajntpiUJdDN/5ANfJmfLuH7N0ekWPDhnT10y+l7fr5sQZVAt7+C+cmow82k+e68cot2p0LJXKtUcwBeBtrnAV2Ai0NVtwFGXdLJ7L9YvaajWLYBrt5TjdsEusVENgdWrLiMGbglpJk/UvC838yh237tSvC0Hh69qczvALVlgW4vMdVE42GbA46DECUzApePbdyk/ZhrBd/AmzkOeIGuEUf12wa4ejRfjYCLYIro9pHRS3RPLtkURHtX2MDW9OhOTF8j0C0unVhS5DJPfddn6BJxYvzhitlIcd8BRHjaUnQ25z3nV6Q72bx73P6g68AXcdWnxzfwJE6Rdj5QN/AacRV/du9QpGtagXptDC86wEWlXIOUsoEtCmVcp7iIiwnbTo/uhsnr1wl0i4Nue9h9Cb7MBSun82i5KS3VOjzyobK+AwAfL28+N3lthH6Bx/Upj9LLzZvH4x94Og24Omgn+sLlYzrirYOBhvZrprZ90w16FOCgveumX9WTgAbtugDXwJYeXHyVEeddGieV3KNHF/W9QLdY4cz+oZHbBboJUszFgmGJkhnwnVXhFXhcL3oU6TY2JTz0dHTCwWmG3X/jfWu10KryKmdqvMEAhEEbJS6Wjrrfts+ui5cy0P3jtet0hiQlbM2e2zg9/Q6BbrHQDVKluwW6iVqHykgxYzbyiEDXIegGvbqpDsArAucq6nJhsVXtWoy69ldXjLY+j61hDVt/+omk7CYHRddzxycaH3dxjm7VoRuK2hYFut6oeRf7TXAS6JYAXdqG1k9O30HkkBV8ayu2Euh2YEt0i8lFQpHUIBeqnWNTzatcPwiqDN0gzfxZgW4iBXhZFyuzVU0zewddszZeM71MHWoPqn0k7cEYFlsxoQg3q9qIrWoM3QxFUj0tH9EfuBzd1gm62pd5aPSwQDdmG005/c6m/eop4/Il0HUAup0Womsbq8ampj+jDrrFtAdlt9gK6NZBbFU36OYgklpSuyUT43L9to7Q1QBZPnKXQDdmhmB49KYyfz96ngW6jkF3icBqovFMBoemPoDX1k1sVRPodouk1mYH2yPUbcnA+HgQ1AG6ZYqDfIVuu+2qeC/rJVOISjbNEOhGwbc9/m9PXmKrKtd7qwzdHEVSJ8Ynph91dU6uQLf79yzJl9lT6LZfs1ImN4X3sf0XXzIp0HUUukZsFQy8n82q3hsWW1HvrSJ8qwhdA1tEUr++aYu+iFqbUd02yKxsqsJBUBfoBhB5SqBrvxA04bRV8u8578rcXYHugMVUIkzmo8YBJnG2qqLYqkrQLUIk5epsXIGu1aF3TKAbK0PwSQd+18PhucUCXQehaxa9veqgfAgrvqzEVkyWqZrYqgrQDYuk7hjb0BFJZRLZeiqSEuj2EAhVZ6JMIdDV6u/lo0cc+H3f8r2HtxbQNQvv2/HJ6ce1WUHKem8vZyvfxwj6Dt2cnKRaQVvag76KpAS6fQVCcwLdWBcq9znyOx9zYf6uQDfGYtoLpgVZiK0u7RJbkXL2VensK3RN3ZbZtrHH7dVAJCXQ7QOR4dFbBLpxa7sODZAYHv1EmVOJBLqJxFbNm3V9LkNnq4/+0vu9FVv5Bt2wk5SIpAS6cVcw7H6nQNd+lTTgflAf77M4Zwl0PYCuWdTnsrKV9N3ZyhfohmfbZi2S0u1mE83mWTVbdYSujnYVsMoY2O4rdINe5+cdew3m+Tz54l5Ve+h24JuDraQRW/kyRtB16IpISqCbT61y5BGBbpwLlUsmHR0g8bQPUa9At7vee9pWciELZyufxgi6Cl0DW2b4YtuYtUhKwfZ+2svOqvGqM3Sdq1U6Dl3HL1SO0d6E2tph6A57NcS+OPhu3aAO5B1Z1XupNSK2em7Npc6OEXQRutRtga4RSV2anZPUYl1EUgJdi1qlv77MpUDXA/X3YdrCXIIvw0+CMZNFDpHY7t1hlLWtpMtiK5eg208kNS4iKYFufrXKlwS6cT4z2lLzlOOvzzxReZluVlygBEr5nSWk5bd7eSBt3rz5J9dPNm7N0lYyLLYi8j0g0D1DJMVsW5Omz1Ik5cu4PYFu0aIqXas8JdCtZD18cW75yHOor6mpqouss/MGLSYewetTZkZgu9cHE3W/8cnm3erwPpSHs1XZ5hplQrdbJGUUyRnVbWfx4q6rSEqgGyPNrA4pga79Onjhmnc5qGaONtcYGt2tXckUGElBp4UwrwMiLgXZ2+eGR59wKPW+vRIHVJa2kmGx1VcuW1eqs1UZ0O2IpNR/G5FUhuYW83hv110kJdCNFaGs1laDAl3rBWwcsYhMttvPfTew1CBWn01S59RfeW3P3JdM6jnDy0fuCiLZp4Pxhy4qurdX6qAK2UouZjVG8Pc2X9UZI1i02Kpo6IZFUkT8GYqkFtZPNB7m4khwKtCNnzJ1xu7QC+jq16w97P6Ut+Dtvfl9jgcwDW+ffoftlTywxqaaVwXinMzFVkXO8C0Kuv1m22ZUt92B8lwwKtBNmTJ9SaBb6YuVuuztlT20EOdkZSvZz9kqb/jmDV2jSDYiqStyEEkJPgW6GUZuAt2YZ+D+oZHPCugEuoWuPGwlSb1uGxvPfYxgXtDtJ5LKCLZaJIXCXNAp0M0SIAX3U3oPXVbQevW0wE6gWzx8r5lehtNRWlvJK3qIrV7PSWyVNXTDsEUkZWwbRSQl0PVhNFvbl9n5YfdOQTeUnn9egCfQLWXheITzUVpbybCzVV5iqyyha2bbhkVSGcFWi6TESUqgW8zrMvJJgW781bbWFPAKdEuFb7a2knk4W2UBXVO37RZJZQDbkyKSEuiWAw+nfZmdhK6AV6DrDnynGtcpeMxkVe8lZZuVs1Ua6HY7SdH+lGHddobXTdAo0C0lzYzhgUBXwCvQ9XetuvHGswNbyb1ZOlshtiLiTTrDNwl0DWwfVT+bw2zbvbxOvF7yqRHolrVwK9LmCQLdNODdKQAU6Ja+sraVTCu2igtdEUkJdOsAXVYwHWZRoJv4wuWnpZ2ohD08+oScbr3ge/X1F2ZhK2mUzkZsFXeMoC10jUjqj9euy3q2rThJCXSdXY76MnsBXdZzmzf/hLZZFBgWaHE5cpecbgNW1raSRmz1wqrVVmKrKOj2c5IaFycpgW4NoKuHj7vnMewNdLtq5G8JFHPdb/n4HSttrZ+YvkZFvjvzEFsNgm8/6J7hJJXlbFsZtyfQ9QoYzlkdegfdULp+VuCYy57l9ZVTLebK0layW2w112eMYDd0RSQl0BXonlmbdMyX2UvosgKB1XaBZLY1XF5XOdFSrJCt5GwWYwRXDxBbGejm7CR1CPGYiKQEuv6+ViM3ODRRx1voLkk3+zwa0J108ofkJMsSvtdML1PAehBlbxbwNWMEEVuRcga+QNeM2zMiqQxn2x4VkZRAtwrQRRDkkL+w99DV4GVO7dDoswLPRHtnFT4Dzi6gNTY1/ZmsbCXDzlZAF9vGjEVSi4jDEInJuyfQrQJ0WXpwuxu+zMercuDqfmgVranfaV5AarXnUSfzuskJVsDKylYyPEaQtLMRSYmTlEBXoDt4zQ2PfkKgm/3SKvF2rXdRwNpzn6LnWb1Oq+XkKmGh/M3KVnKtiKQEugJd6xUIgeYEunmlnC+ZVJHccwLZ03vf0OguXhc5sUpezJLNylZSRFICXYFujGh3+coPCnTzTTnvHx69yWEbzqL287wOkkp2bGVpKxlXJIWjloikBLp1g66uQ5YbjR2vg4hGu1nVEL46sm3D9qfllHJ4abFVBraSdltEUgLd+kKXVbIv8/E6KVfbFzkrtioYPTU3tHKhorA9Rr8taWQuNuR08mhpW8mp5jYFxxM5AFdEUgJdgW6wSjTzP17XdhEU5IGX80sVge1L/D4ikKrAUoDcND7ReCYL2GqHrKnmzSKSqtYqvDZZsUb+QHFbSqtL3Xs0tUuYin7Vhc8jDgjbYls26uetnr+kkCu2MrCV1CIpHLLk1aze4up639DoR+j7y3vzOEQpVXsNSQcW9Rqa15GLF7H9O70OXrjmXTiGBQB+ycG2o+OIotRz/CSg5fnKu1bxFbKVnIsjkmL8oLx6smTJ8ikC1iYm7SzOdg3htt1kURaei0H243nKD/uHR2/h+UhEW9OF0lnB9/4BtpLaSWr9tY1V8mrJkiWrAhA+m4yO7v8dHvkQ0WZbkKUj4vnAYWwxBpRPBbfn5w4DVwRQOopV94/AjrKDTFCTtWQB1fGJ6Ue7lM4zjBeUV0eWLFl1iIgVHM8BkNTH2+rolb+pI2T28MjvtFP6wf+rTRsP8Ob2/Bw/Lz20smItLbZSke34VOM2zDbkFZElS5Ys/9f/B3c//viDLqOiAAAAAElFTkSuQmCCMB1mUaCb+MLlp6WdqIQ9PPqEnG694Hv19RdmYStplM5GbBV3jKAtdI1I6o/Xrst6tq04SQl0nV2O+jJ7AV3Wc5s3/4S2WRQYFmhxOXKXnG4DVta2kkZs9cKq1VZiqyjo9nOSGhcnKYFuDaCrh4+75zHsDXS7auRvCRRz3W/5+B0rba2fmL5GRb478xBbDYJvP+ie4SSV5WxbGbcn0PUKGM5ZHXoH3VC6flbgmMue5fWVUy3mytJWsltsNddnjGA3dEUkJdAV6J5Zm3TMl9lL6LICgdV2gWS2NVxeVznRUqyQreRsFmMEVw8QWxno5uwkdQjxmIikBLr+vlYjNzg0Ucdb6C5JN/s8GtCddPKH5CTLEr7XTC9TwHoQZW8W8DVjBBFbkXIGvkDXjNszIqkMZ9seFZGUQLcK0EUQ5JC/sPfQ1eBlTu3Q6LMCz0R7ZxU+A84uoDU2Nf2ZrGwlw85WQBfbxoxFUouIwxCJybsn0K0CdFl6cLsbvszHq3Lg6n5oFa2p32leQGq151En87rJCVbAyspWMjxGkLSzEUmJk5RAV6A7eM0Nj35CoJv90irxdq13UcDac5+i51m9Tqvl5CphofzNylZyrYikBLoCXesVCIHmBLp5pZwvmVSR3HMC2dN739DoLl4XObFKXsySzcpWUkRSAl2Bboxod/nKDwp080057x8evclhG86i9vO8DpJKdmxlaSsZVySFo5aIpAS6dYOurkOWG40dr4OIRrtZ1RC+OrJtw/an5ZRyeGmxVQa2knZbRFIC3fpCl1WyL/PxOilX2xc5K7YqGD01N7RyoaKwPUa/LWlkLjbkdPJoaVvJqeY2BccTOQBXRFICXYFusEo08z9e13YRFOSBl/NLFYHtS/w+IpCqwFKA3DQ+0XgmC9hqh6yp5s0ikqrWKrw2WbFG/kBxW0qrS917NLVLmIp+1YXPIw4I22JbNurnrZ6/pJArtjKwldQiKRyy5NWs3uLqet/Q6Efo+8t78zhEKVV7DUkHFvUamteRixex/Tu9Dl645l04hgUAfsnBtqPjiKLUc/wkoOX5yrtW8RWylZyLI5Ji/KC8erJkyfIpAtYmJu0sznYN4bbdZFEWnotB9uN5yg/7h0dv4flIRFvThdJZwQ==;" parent="1" vertex="1">
          <mxGeometry x="160" y="130.39" width="20" height="9.22" as="geometry" />
        </mxCell>
        <mxCell id="-CAyEEBA3umkIzGsVxpX-20" value="&lt;font style=&quot;font-size: 9px;&quot;&gt;4200:4200&lt;/font&gt;" style="rounded=1;whiteSpace=wrap;html=1;glass=1;" parent="1" vertex="1">
          <mxGeometry x="220" y="120" width="60" height="20" as="geometry" />
        </mxCell>
        <mxCell id="-CAyEEBA3umkIzGsVxpX-22" value="Database" style="text;html=1;align=center;verticalAlign=middle;whiteSpace=wrap;rounded=0;fontStyle=1;fillColor=light-dark(#ffffff, #1a1a1a);fontColor=#333333;strokeColor=#666666;shadow=1;" parent="1" vertex="1">
          <mxGeometry x="640" y="190" width="65" height="20" as="geometry" />
        </mxCell>
        <mxCell id="-CAyEEBA3umkIzGsVxpX-23" value="&lt;font style=&quot;font-size: 9px;&quot;&gt;3000:3000&lt;/font&gt;" style="rounded=1;whiteSpace=wrap;html=1;glass=1;" parent="1" vertex="1">
          <mxGeometry x="420" y="120" width="60" height="20" as="geometry" />
        </mxCell>
        <mxCell id="-CAyEEBA3umkIzGsVxpX-24" value="&lt;font style=&quot;font-size: 9px;&quot;&gt;27017:27017&lt;/font&gt;" style="rounded=1;whiteSpace=wrap;html=1;glass=1;" parent="1" vertex="1">
          <mxGeometry x="620" y="120" width="60" height="20" as="geometry" />
        </mxCell>
        <mxCell id="-CAyEEBA3umkIzGsVxpX-25" value="&lt;font style=&quot;font-size: 6px;&quot;&gt;mongodb/mongodb-community-server&lt;/font&gt;" style="text;whiteSpace=wrap;html=1;horizontal=1;verticalAlign=bottom;" parent="1" vertex="1">
          <mxGeometry x="530" y="170" width="120" height="30" as="geometry" />
        </mxCell>
        <mxCell id="-CAyEEBA3umkIzGsVxpX-26" value="&lt;font style=&quot;font-size: 6px;&quot;&gt;flawas/weblab-backend&lt;/font&gt;" style="text;whiteSpace=wrap;html=1;horizontal=1;verticalAlign=bottom;" parent="1" vertex="1">
          <mxGeometry x="330" y="170" width="120" height="30" as="geometry" />
        </mxCell>
        <mxCell id="-CAyEEBA3umkIzGsVxpX-27" value="&lt;font style=&quot;font-size: 6px;&quot;&gt;flawas/weblab-frontend&lt;/font&gt;" style="text;whiteSpace=wrap;html=1;horizontal=1;verticalAlign=bottom;" parent="1" vertex="1">
          <mxGeometry x="130" y="170" width="120" height="30" as="geometry" />
        </mxCell>
        <mxCell id="-CAyEEBA3umkIzGsVxpX-40" value="" style="rounded=1;whiteSpace=wrap;html=1;fillColor=#d5e8d4;strokeColor=#82b366;shadow=1;" parent="1" vertex="1">
          <mxGeometry x="360" y="525" width="110" height="50" as="geometry" />
        </mxCell>
        <mxCell id="-CAyEEBA3umkIzGsVxpX-41" value="Roles" style="text;html=1;align=center;verticalAlign=middle;whiteSpace=wrap;rounded=0;fontStyle=1;fillColor=light-dark(#ffffff, #1a1a1a);fontColor=#333333;strokeColor=#666666;shadow=1;" parent="1" vertex="1">
          <mxGeometry x="410" y="565" width="85" height="20" as="geometry" />
        </mxCell>
        <mxCell id="-CAyEEBA3umkIzGsVxpX-44" value="" style="rounded=1;whiteSpace=wrap;html=1;fillColor=#d5e8d4;strokeColor=#82b366;shadow=1;" parent="1" vertex="1">
          <mxGeometry x="360" y="440" width="110" height="50" as="geometry" />
        </mxCell>
        <mxCell id="-CAyEEBA3umkIzGsVxpX-45" value="Ring" style="text;html=1;align=center;verticalAlign=middle;whiteSpace=wrap;rounded=0;fontStyle=1;fillColor=light-dark(#ffffff, #1a1a1a);fontColor=#333333;strokeColor=#666666;shadow=1;" parent="1" vertex="1">
          <mxGeometry x="410" y="480" width="85" height="20" as="geometry" />
        </mxCell>
        <mxCell id="-CAyEEBA3umkIzGsVxpX-46" value="" style="rounded=1;whiteSpace=wrap;html=1;fillColor=#d5e8d4;strokeColor=#82b366;shadow=1;" parent="1" vertex="1">
          <mxGeometry x="360" y="350" width="110" height="50" as="geometry" />
        </mxCell>
        <mxCell id="-CAyEEBA3umkIzGsVxpX-47" value="Passwords" style="text;html=1;align=center;verticalAlign=middle;whiteSpace=wrap;rounded=0;fontStyle=1;fillColor=light-dark(#ffffff, #1a1a1a);fontColor=#333333;strokeColor=#666666;shadow=1;" parent="1" vertex="1">
          <mxGeometry x="410" y="390" width="85" height="20" as="geometry" />
        </mxCell>
        <mxCell id="-CAyEEBA3umkIzGsVxpX-48" value="" style="rounded=1;whiteSpace=wrap;html=1;fillColor=#d5e8d4;strokeColor=#82b366;shadow=0;" parent="1" vertex="1">
          <mxGeometry x="160" y="525" width="110" height="50" as="geometry" />
        </mxCell>
        <mxCell id="-CAyEEBA3umkIzGsVxpX-49" value="Log" style="text;html=1;align=center;verticalAlign=middle;whiteSpace=wrap;rounded=0;fontStyle=1;fillColor=light-dark(#ffffff, #1a1a1a);fontColor=#333333;strokeColor=#666666;shadow=1;" parent="1" vertex="1">
          <mxGeometry x="210" y="565" width="85" height="20" as="geometry" />
        </mxCell>
        <mxCell id="-CAyEEBA3umkIzGsVxpX-50" value="" style="rounded=1;whiteSpace=wrap;html=1;fillColor=#d5e8d4;strokeColor=#82b366;shadow=0;" parent="1" vertex="1">
          <mxGeometry x="160" y="440" width="110" height="50" as="geometry" />
        </mxCell>
        <mxCell id="-CAyEEBA3umkIzGsVxpX-51" value="Cateogories" style="text;html=1;align=center;verticalAlign=middle;whiteSpace=wrap;rounded=0;fontStyle=1;fillColor=light-dark(#ffffff, #1a1a1a);fontColor=#333333;strokeColor=#666666;shadow=1;" parent="1" vertex="1">
          <mxGeometry x="210" y="480" width="85" height="20" as="geometry" />
        </mxCell>
        <mxCell id="-CAyEEBA3umkIzGsVxpX-52" value="" style="rounded=1;whiteSpace=wrap;html=1;fillColor=#d5e8d4;strokeColor=#82b366;shadow=0;" parent="1" vertex="1">
          <mxGeometry x="160" y="350" width="110" height="50" as="geometry" />
        </mxCell>
        <mxCell id="-CAyEEBA3umkIzGsVxpX-53" value="Auth" style="text;html=1;align=center;verticalAlign=middle;whiteSpace=wrap;rounded=0;fontStyle=1;fillColor=light-dark(#ffffff, #1a1a1a);fontColor=#333333;strokeColor=#666666;shadow=1;" parent="1" vertex="1">
          <mxGeometry x="210" y="390" width="85" height="20" as="geometry" />
        </mxCell>
        <mxCell id="-CAyEEBA3umkIzGsVxpX-56" value="" style="rounded=1;whiteSpace=wrap;html=1;fillColor=#d5e8d4;strokeColor=#82b366;shadow=1;" parent="1" vertex="1">
          <mxGeometry x="530" y="440" width="110" height="50" as="geometry" />
        </mxCell>
        <mxCell id="-CAyEEBA3umkIzGsVxpX-58" value="" style="rounded=1;whiteSpace=wrap;html=1;fillColor=#d5e8d4;strokeColor=#82b366;shadow=1;" parent="1" vertex="1">
          <mxGeometry x="530" y="350" width="110" height="50" as="geometry" />
        </mxCell>
        <mxCell id="-CAyEEBA3umkIzGsVxpX-59" value="Technologies" style="text;html=1;align=center;verticalAlign=middle;whiteSpace=wrap;rounded=0;fontStyle=1;fillColor=light-dark(#ffffff, #1a1a1a);fontColor=#333333;strokeColor=#666666;shadow=1;" parent="1" vertex="1">
          <mxGeometry x="580" y="390" width="85" height="20" as="geometry" />
        </mxCell>
        <mxCell id="-CAyEEBA3umkIzGsVxpX-60" value="Module" style="rounded=0;whiteSpace=wrap;html=1;fontSize=7;" parent="1" vertex="1">
          <mxGeometry x="185" y="365" width="60" height="10" as="geometry" />
        </mxCell>
        <mxCell id="-CAyEEBA3umkIzGsVxpX-61" value="Controller" style="rounded=0;whiteSpace=wrap;html=1;fontSize=7;" parent="1" vertex="1">
          <mxGeometry x="185" y="355" width="60" height="10" as="geometry" />
        </mxCell>
        <mxCell id="-CAyEEBA3umkIzGsVxpX-62" value="Service" style="rounded=0;whiteSpace=wrap;html=1;fontSize=7;" parent="1" vertex="1">
          <mxGeometry x="185" y="375" width="60" height="10" as="geometry" />
        </mxCell>
        <mxCell id="-CAyEEBA3umkIzGsVxpX-63" value="Module" style="rounded=0;whiteSpace=wrap;html=1;fontSize=7;" parent="1" vertex="1">
          <mxGeometry x="185" y="455" width="60" height="10" as="geometry" />
        </mxCell>
        <mxCell id="-CAyEEBA3umkIzGsVxpX-64" value="Controller" style="rounded=0;whiteSpace=wrap;html=1;fontSize=7;" parent="1" vertex="1">
          <mxGeometry x="185" y="445" width="60" height="10" as="geometry" />
        </mxCell>
        <mxCell id="-CAyEEBA3umkIzGsVxpX-65" value="Service" style="rounded=0;whiteSpace=wrap;html=1;fontSize=7;" parent="1" vertex="1">
          <mxGeometry x="185" y="465" width="60" height="10" as="geometry" />
        </mxCell>
        <mxCell id="-CAyEEBA3umkIzGsVxpX-66" value="Module" style="rounded=0;whiteSpace=wrap;html=1;fontSize=7;" parent="1" vertex="1">
          <mxGeometry x="185" y="540" width="60" height="10" as="geometry" />
        </mxCell>
        <mxCell id="-CAyEEBA3umkIzGsVxpX-67" value="Controller" style="rounded=0;whiteSpace=wrap;html=1;fontSize=7;" parent="1" vertex="1">
          <mxGeometry x="185" y="530" width="60" height="10" as="geometry" />
        </mxCell>
        <mxCell id="-CAyEEBA3umkIzGsVxpX-68" value="Service" style="rounded=0;whiteSpace=wrap;html=1;fontSize=7;" parent="1" vertex="1">
          <mxGeometry x="185" y="550" width="60" height="10" as="geometry" />
        </mxCell>
        <mxCell id="-CAyEEBA3umkIzGsVxpX-69" value="Module" style="rounded=0;whiteSpace=wrap;html=1;fontSize=7;" parent="1" vertex="1">
          <mxGeometry x="384" y="365" width="60" height="10" as="geometry" />
        </mxCell>
        <mxCell id="-CAyEEBA3umkIzGsVxpX-70" value="Controller" style="rounded=0;whiteSpace=wrap;html=1;fontSize=7;" parent="1" vertex="1">
          <mxGeometry x="384" y="355" width="60" height="10" as="geometry" />
        </mxCell>
        <mxCell id="-CAyEEBA3umkIzGsVxpX-71" value="Service" style="rounded=0;whiteSpace=wrap;html=1;fontSize=7;" parent="1" vertex="1">
          <mxGeometry x="384" y="375" width="60" height="10" as="geometry" />
        </mxCell>
        <mxCell id="-CAyEEBA3umkIzGsVxpX-72" value="Module" style="rounded=0;whiteSpace=wrap;html=1;fontSize=7;" parent="1" vertex="1">
          <mxGeometry x="384" y="540" width="60" height="10" as="geometry" />
        </mxCell>
        <mxCell id="-CAyEEBA3umkIzGsVxpX-75" value="Module" style="rounded=0;whiteSpace=wrap;html=1;fontSize=7;" parent="1" vertex="1">
          <mxGeometry x="384" y="455" width="60" height="10" as="geometry" />
        </mxCell>
        <mxCell id="-CAyEEBA3umkIzGsVxpX-76" value="Controller" style="rounded=0;whiteSpace=wrap;html=1;fontSize=7;" parent="1" vertex="1">
          <mxGeometry x="384" y="445" width="60" height="10" as="geometry" />
        </mxCell>
        <mxCell id="-CAyEEBA3umkIzGsVxpX-77" value="Service" style="rounded=0;whiteSpace=wrap;html=1;fontSize=7;" parent="1" vertex="1">
          <mxGeometry x="384" y="465" width="60" height="10" as="geometry" />
        </mxCell>
        <mxCell id="-CAyEEBA3umkIzGsVxpX-78" value="Module" style="rounded=0;whiteSpace=wrap;html=1;fontSize=7;" parent="1" vertex="1">
          <mxGeometry x="555" y="365" width="60" height="10" as="geometry" />
        </mxCell>
        <mxCell id="-CAyEEBA3umkIzGsVxpX-79" value="Controller" style="rounded=0;whiteSpace=wrap;html=1;fontSize=7;" parent="1" vertex="1">
          <mxGeometry x="555" y="355" width="60" height="10" as="geometry" />
        </mxCell>
        <mxCell id="-CAyEEBA3umkIzGsVxpX-80" value="Service" style="rounded=0;whiteSpace=wrap;html=1;fontSize=7;" parent="1" vertex="1">
          <mxGeometry x="555" y="375" width="60" height="10" as="geometry" />
        </mxCell>
        <mxCell id="-CAyEEBA3umkIzGsVxpX-81" value="Module" style="rounded=0;whiteSpace=wrap;html=1;fontSize=7;" parent="1" vertex="1">
          <mxGeometry x="555" y="455" width="60" height="10" as="geometry" />
        </mxCell>
        <mxCell id="-CAyEEBA3umkIzGsVxpX-82" value="Controller" style="rounded=0;whiteSpace=wrap;html=1;fontSize=7;" parent="1" vertex="1">
          <mxGeometry x="555" y="445" width="60" height="10" as="geometry" />
        </mxCell>
        <mxCell id="-CAyEEBA3umkIzGsVxpX-83" value="Service" style="rounded=0;whiteSpace=wrap;html=1;fontSize=7;" parent="1" vertex="1">
          <mxGeometry x="555" y="465" width="60" height="10" as="geometry" />
        </mxCell>
        <mxCell id="-CAyEEBA3umkIzGsVxpX-84" value="" style="endArrow=none;html=1;rounded=0;entryX=0.5;entryY=1;entryDx=0;entryDy=0;exitX=0.25;exitY=0;exitDx=0;exitDy=0;" parent="1" source="-CAyEEBA3umkIzGsVxpX-29" target="-CAyEEBA3umkIzGsVxpX-6" edge="1">
          <mxGeometry width="50" height="50" relative="1" as="geometry">
            <mxPoint x="100" y="320" as="sourcePoint" />
            <mxPoint x="150" y="270" as="targetPoint" />
          </mxGeometry>
        </mxCell>
        <mxCell id="-CAyEEBA3umkIzGsVxpX-85" value="" style="endArrow=none;html=1;rounded=0;entryX=0.5;entryY=1;entryDx=0;entryDy=0;exitX=0.75;exitY=0;exitDx=0;exitDy=0;" parent="1" source="-CAyEEBA3umkIzGsVxpX-29" target="-CAyEEBA3umkIzGsVxpX-6" edge="1">
          <mxGeometry width="50" height="50" relative="1" as="geometry">
            <mxPoint x="380" y="290" as="sourcePoint" />
            <mxPoint x="430" y="240" as="targetPoint" />
          </mxGeometry>
        </mxCell>
        <mxCell id="-CAyEEBA3umkIzGsVxpX-21" value="Backend" style="text;html=1;align=center;verticalAlign=middle;whiteSpace=wrap;rounded=0;fontStyle=1;fillColor=light-dark(#ffffff, #1a1a1a);fontColor=#333333;strokeColor=#666666;shadow=1;" parent="1" vertex="1">
          <mxGeometry x="440" y="190" width="65" height="20" as="geometry" />
        </mxCell>
        <mxCell id="-CAyEEBA3umkIzGsVxpX-86" value="" style="rounded=1;whiteSpace=wrap;html=1;glass=0;shadow=1;fillColor=#d5e8d4;strokeColor=#82b366;textShadow=0;" parent="1" vertex="1">
          <mxGeometry x="420" y="680" width="280" height="160" as="geometry" />
        </mxCell>
        <mxCell id="-CAyEEBA3umkIzGsVxpX-87" value="" style="rounded=1;whiteSpace=wrap;html=1;glass=0;shadow=1;fillColor=#d5e8d4;strokeColor=#82b366;textShadow=0;" parent="1" vertex="1">
          <mxGeometry x="100" y="680" width="280" height="160" as="geometry" />
        </mxCell>
        <mxCell id="-CAyEEBA3umkIzGsVxpX-88" value="" style="endArrow=none;html=1;rounded=0;entryX=0.5;entryY=1;entryDx=0;entryDy=0;exitX=0.25;exitY=0;exitDx=0;exitDy=0;" parent="1" source="-CAyEEBA3umkIzGsVxpX-86" target="-CAyEEBA3umkIzGsVxpX-56" edge="1">
          <mxGeometry width="50" height="50" relative="1" as="geometry">
            <mxPoint x="440" y="690" as="sourcePoint" />
            <mxPoint x="490" y="640" as="targetPoint" />
          </mxGeometry>
        </mxCell>
        <mxCell id="-CAyEEBA3umkIzGsVxpX-90" value="" style="endArrow=none;html=1;rounded=0;entryX=0.5;entryY=1;entryDx=0;entryDy=0;exitX=0.75;exitY=0;exitDx=0;exitDy=0;" parent="1" source="-CAyEEBA3umkIzGsVxpX-86" target="-CAyEEBA3umkIzGsVxpX-56" edge="1">
          <mxGeometry width="50" height="50" relative="1" as="geometry">
            <mxPoint x="540" y="690" as="sourcePoint" />
            <mxPoint x="590" y="640" as="targetPoint" />
          </mxGeometry>
        </mxCell>
        <mxCell id="-CAyEEBA3umkIzGsVxpX-57" value="Users" style="text;html=1;align=center;verticalAlign=middle;whiteSpace=wrap;rounded=0;fontStyle=1;fillColor=light-dark(#ffffff, #1a1a1a);fontColor=#333333;strokeColor=#666666;shadow=1;" parent="1" vertex="1">
          <mxGeometry x="580" y="480" width="85" height="20" as="geometry" />
        </mxCell>
        <mxCell id="-CAyEEBA3umkIzGsVxpX-91" value="Users" style="text;html=1;align=center;verticalAlign=middle;whiteSpace=wrap;rounded=1;fontStyle=1;fillColor=light-dark(#ffffff, #1a1a1a);fontColor=#333333;strokeColor=#666666;shadow=1;" parent="1" vertex="1">
          <mxGeometry x="640" y="830" width="85" height="20" as="geometry" />
        </mxCell>
        <mxCell id="-CAyEEBA3umkIzGsVxpX-92" value="GET &lt;span style=&quot;white-space: pre;&quot;&gt;&#x9;&lt;/span&gt;/users&lt;div&gt;GET&amp;nbsp;&lt;span style=&quot;white-space: pre;&quot;&gt;&#x9;&lt;/span&gt;/users/{id}&lt;br&gt;POST &lt;span style=&quot;white-space: pre;&quot;&gt;&#x9;&lt;/span&gt;/users&lt;div style=&quot;&quot;&gt;PATCH &lt;span style=&quot;white-space: pre;&quot;&gt;&#x9;&lt;/span&gt;/users/{id}&lt;/div&gt;&lt;div style=&quot;&quot;&gt;DELETE&lt;span style=&quot;white-space: pre;&quot;&gt;&#x9;&lt;/span&gt;/users/{id}&lt;/div&gt;&lt;/div&gt;" style="rounded=0;whiteSpace=wrap;html=1;align=left;sketch=1;curveFitting=1;jiggle=2;glass=0;shadow=1;" parent="1" vertex="1">
          <mxGeometry x="570" y="690" width="120" height="80" as="geometry" />
        </mxCell>
        <mxCell id="-CAyEEBA3umkIzGsVxpX-95" value="UsersService" style="rounded=0;whiteSpace=wrap;html=1;align=left;sketch=1;curveFitting=1;jiggle=2;glass=0;shadow=1;" parent="1" vertex="1">
          <mxGeometry x="440" y="690" width="120" height="30" as="geometry" />
        </mxCell>
        <mxCell id="-CAyEEBA3umkIzGsVxpX-96" value="UsersModule" style="rounded=0;whiteSpace=wrap;html=1;align=left;sketch=1;curveFitting=1;jiggle=2;glass=0;shadow=1;" parent="1" vertex="1">
          <mxGeometry x="440" y="740" width="120" height="30" as="geometry" />
        </mxCell>
        <mxCell id="-CAyEEBA3umkIzGsVxpX-97" value="UsersEntity" style="rounded=0;whiteSpace=wrap;html=1;align=left;sketch=1;curveFitting=1;jiggle=2;glass=0;shadow=1;" parent="1" vertex="1">
          <mxGeometry x="440" y="790" width="120" height="30" as="geometry" />
        </mxCell>
        <mxCell id="-CAyEEBA3umkIzGsVxpX-98" value="UsersDTO" style="rounded=0;whiteSpace=wrap;html=1;align=left;sketch=1;curveFitting=1;jiggle=2;glass=0;shadow=1;" parent="1" vertex="1">
          <mxGeometry x="570" y="790" width="120" height="30" as="geometry" />
        </mxCell>
        <mxCell id="-CAyEEBA3umkIzGsVxpX-100" value="" style="dashed=0;outlineConnect=0;html=1;align=center;labelPosition=center;verticalLabelPosition=bottom;verticalAlign=top;shape=mxgraph.weblogos.mongodb" parent="1" vertex="1">
          <mxGeometry x="546.9" y="796.53" width="8.1" height="16.95" as="geometry" />
        </mxCell>
        <mxCell id="-CAyEEBA3umkIzGsVxpX-101" value="Passwords" style="text;html=1;align=center;verticalAlign=middle;whiteSpace=wrap;rounded=1;fontStyle=1;fillColor=light-dark(#ffffff, #1a1a1a);fontColor=#333333;strokeColor=#666666;shadow=1;" parent="1" vertex="1">
          <mxGeometry x="320" y="830" width="85" height="20" as="geometry" />
        </mxCell>
        <mxCell id="-CAyEEBA3umkIzGsVxpX-102" value="POST&amp;nbsp;&lt;span style=&quot;white-space: pre;&quot;&gt;&#x9;&lt;/span&gt;/passwords/hash&lt;div&gt;POST&amp;nbsp;&lt;span style=&quot;white-space: pre;&quot;&gt;&#x9;&lt;/span&gt;/passwords/compare&lt;br&gt;&lt;/div&gt;" style="rounded=0;whiteSpace=wrap;html=1;align=left;sketch=1;curveFitting=1;jiggle=2;glass=0;shadow=1;" parent="1" vertex="1">
          <mxGeometry x="110" y="690" width="180" height="40" as="geometry" />
        </mxCell>
        <mxCell id="-CAyEEBA3umkIzGsVxpX-103" value="bcrypt" style="rounded=0;whiteSpace=wrap;html=1;align=left;glass=0;shadow=1;sketch=1;curveFitting=1;jiggle=2;" parent="1" vertex="1">
          <mxGeometry x="310" y="690" width="55" height="40" as="geometry" />
        </mxCell>
        <mxCell id="-CAyEEBA3umkIzGsVxpX-105" value="PasswordsService" style="rounded=0;whiteSpace=wrap;html=1;align=left;glass=0;shadow=1;sketch=1;curveFitting=1;jiggle=2;" parent="1" vertex="1">
          <mxGeometry x="245" y="745" width="120" height="30" as="geometry" />
        </mxCell>
        <mxCell id="-CAyEEBA3umkIzGsVxpX-106" value="PasswordsModule" style="rounded=0;whiteSpace=wrap;html=1;align=left;sketch=1;curveFitting=1;jiggle=2;glass=0;shadow=1;" parent="1" vertex="1">
          <mxGeometry x="110" y="745" width="120" height="30" as="geometry" />
        </mxCell>
        <mxCell id="-CAyEEBA3umkIzGsVxpX-107" value="PasswordsDTO" style="rounded=0;whiteSpace=wrap;html=1;align=left;sketch=1;curveFitting=1;jiggle=2;glass=0;shadow=1;" parent="1" vertex="1">
          <mxGeometry x="245" y="790" width="120" height="30" as="geometry" />
        </mxCell>
        <mxCell id="-CAyEEBA3umkIzGsVxpX-110" value="" style="endArrow=none;html=1;rounded=0;exitX=0.5;exitY=0;exitDx=0;exitDy=0;entryX=0.25;entryY=1;entryDx=0;entryDy=0;shadow=0;sketch=1;curveFitting=1;jiggle=2;" parent="1" source="-CAyEEBA3umkIzGsVxpX-105" target="-CAyEEBA3umkIzGsVxpX-103" edge="1">
          <mxGeometry width="50" height="50" relative="1" as="geometry">
            <mxPoint x="280" y="780" as="sourcePoint" />
            <mxPoint x="330" y="730" as="targetPoint" />
          </mxGeometry>
        </mxCell>
      </root>
    </mxGraphModel>
  </diagram>
  <diagram id="6ZEM0vCpcxxSK0K7ivZQ" name="Laufzeitsicht">
    <mxGraphModel dx="954" dy="623" grid="1" gridSize="10" guides="1" tooltips="1" connect="1" arrows="1" fold="1" page="1" pageScale="1" pageWidth="827" pageHeight="1169" math="0" shadow="0">
      <root>
        <mxCell id="0" />
        <mxCell id="1" parent="0" />
      </root>
    </mxGraphModel>
  </diagram>
</mxfile>
